<svg xmlns="http://www.w3.org/2000/svg" xmlns:xlink="http://www.w3.org/1999/xlink" xmlns:lucid="lucid" width="1081" height="895"><g transform="translate(-360 -11)" lucid:page-tab-id="HWEp-vi-RSFO"><path d="M0 0h1760v1360H0z" fill="#fff"/><path d="M400 297h165v20l-10 10H400z" fill="#fff"/><path d="M565 297v20l-10 10H400" stroke="#333" stroke-width="2" fill="none"/><path d="M400 297h1000v583H400z" stroke="#333" stroke-width="2" fill="none"/><use xlink:href="#a" transform="matrix(1,0,0,1,408,297) translate(4.625 18.6)"/><path d="M420 600h185v20l-10 10H420z" fill="#fff"/><path d="M605 600v20l-10 10H420" stroke="#333" stroke-width="2" fill="none"/><path d="M420 600h960v260H420z" stroke="#333" stroke-width="2" fill="none"/><use xlink:href="#b" transform="matrix(1,0,0,1,428,600) translate(0.19999999999998863 18.6)"/><path d="M500 40h380v221H500z" stroke="#333" stroke-width="2" fill="#fff"/><path d="M500 77.6h380m-380 59.1h380" stroke="#333" stroke-width="2" fill="none"/><use xlink:href="#c" transform="matrix(1,0,0,1,508,48) translate(144.1 14.6)"/><use xlink:href="#d" transform="matrix(1,0,0,1,512,85.6) translate(99.57499999999999 25.6)"/><use xlink:href="#e" transform="matrix(1,0,0,1,512,85.6) translate(110.52499999999999 25.6)"/><use xlink:href="#f" transform="matrix(1,0,0,1,512,85.6) translate(173.52499999999998 25.6)"/><use xlink:href="#g" transform="matrix(1,0,0,1,512,144.7) translate(80.35 25.19999999999999)"/><use xlink:href="#h" transform="matrix(1,0,0,1,512,144.7) translate(192.75 25.19999999999999)"/><use xlink:href="#i" transform="matrix(1,0,0,1,512,144.7) translate(54.349999999999994 46.79999999999999)"/><use xlink:href="#j" transform="matrix(1,0,0,1,512,144.7) translate(212.79999999999998 46.79999999999999)"/><use xlink:href="#k" transform="matrix(1,0,0,1,512,144.7) translate(97.65 68.39999999999999)"/><use xlink:href="#l" transform="matrix(1,0,0,1,512,144.7) translate(88.22500000000001 90)"/><path d="M780 380h420v177H780z" stroke="#333" stroke-width="2" fill="#fff"/><path d="M780 417.6h420m-420 80.7h420" stroke="#333" stroke-width="2" fill="none"/><use xlink:href="#m" transform="matrix(1,0,0,1,788,388) translate(149.675 14.6)"/><use xlink:href="#n" transform="matrix(1,0,0,1,792,425.6) translate(8.25 25.299999999999997)"/><use xlink:href="#o" transform="matrix(1,0,0,1,792,425.6) translate(104.2 25.299999999999997)"/><use xlink:href="#p" transform="matrix(1,0,0,1,792,425.6) translate(172.15 25.299999999999997)"/><use xlink:href="#q" transform="matrix(1,0,0,1,792,425.6) translate(231.10000000000002 25.299999999999997)"/><use xlink:href="#r" transform="matrix(1,0,0,1,792,425.6) translate(246.10000000000002 25.299999999999997)"/><use xlink:href="#s" transform="matrix(1,0,0,1,792,425.6) translate(279.05 25.299999999999997)"/><use xlink:href="#t" transform="matrix(1,0,0,1,792,425.6) translate(323.95 25.299999999999997)"/><use xlink:href="#u" transform="matrix(1,0,0,1,792,425.6) translate(10.75 46.9)"/><use xlink:href="#o" transform="matrix(1,0,0,1,792,425.6) translate(101.7 46.9)"/><use xlink:href="#p" transform="matrix(1,0,0,1,792,425.6) translate(169.65 46.9)"/><use xlink:href="#q" transform="matrix(1,0,0,1,792,425.6) translate(228.60000000000002 46.9)"/><use xlink:href="#r" transform="matrix(1,0,0,1,792,425.6) translate(243.60000000000002 46.9)"/><use xlink:href="#s" transform="matrix(1,0,0,1,792,425.6) translate(276.55 46.9)"/><use xlink:href="#v" transform="matrix(1,0,0,1,792,425.6) translate(321.45 46.9)"/><use xlink:href="#w" transform="matrix(1,0,0,1,792,506.3) translate(94.92500000000001 25.6)"/><use xlink:href="#x" transform="matrix(1,0,0,1,792,506.3) translate(268.125 25.6)"/><path d="M440 720h420v113H440z" stroke="#333" stroke-width="2" fill="#fff"/><path d="M440 757.6h420m-420 37.6h420" stroke="#333" stroke-width="2" fill="none"/><use xlink:href="#y" transform="matrix(1,0,0,1,448,728) translate(142.575 14.6)"/><use xlink:href="#n" transform="matrix(1,0,0,1,452,765.6) translate(8.25 14.6)"/><use xlink:href="#o" transform="matrix(1,0,0,1,452,765.6) translate(104.2 14.6)"/><use xlink:href="#p" transform="matrix(1,0,0,1,452,765.6) translate(172.15 14.6)"/><use xlink:href="#q" transform="matrix(1,0,0,1,452,765.6) translate(231.10000000000002 14.6)"/><use xlink:href="#r" transform="matrix(1,0,0,1,452,765.6) translate(246.10000000000002 14.6)"/><use xlink:href="#s" transform="matrix(1,0,0,1,452,765.6) translate(279.05 14.6)"/><use xlink:href="#v" transform="matrix(1,0,0,1,452,765.6) translate(323.95 14.6)"/><path d="M880 720h480v113H880z" stroke="#333" stroke-width="2" fill="#fff"/><path d="M880 757.6h480m-480 37.6h480" stroke="#333" stroke-width="2" fill="none"/><use xlink:href="#z" transform="matrix(1,0,0,1,888,728) translate(171.125 14.6)"/><use xlink:href="#A" transform="matrix(1,0,0,1,892,765.6) translate(7.850000000000023 14.6)"/><use xlink:href="#o" transform="matrix(1,0,0,1,892,765.6) translate(164.60000000000002 14.6)"/><use xlink:href="#p" transform="matrix(1,0,0,1,892,765.6) translate(232.55 14.6)"/><use xlink:href="#q" transform="matrix(1,0,0,1,892,765.6) translate(291.5 14.6)"/><use xlink:href="#r" transform="matrix(1,0,0,1,892,765.6) translate(306.5 14.6)"/><use xlink:href="#s" transform="matrix(1,0,0,1,892,765.6) translate(339.45 14.6)"/><use xlink:href="#v" transform="matrix(1,0,0,1,892,765.6) translate(384.34999999999997 14.6)"/><path d="M1071.17 718.5h-1v-4.88h1zm0-9.75h-1V699h1zm0-14.63h-1v-9.75h1zm0-14.63h-1v-9.76h1zm0-14.64h-1v-9.75h1zm0-14.63h-1v-.93h1zm-13.72-22.53h-1v-.9h1zm0-5.75h-1v-9.7h1zm0-14.55h-1v-9.7h1zm0-14.55h-1v-9.7h1zm0-14.55h-1v-9.7h1zm0-14.54h-1v-4.85h1z" stroke="#333" stroke-width=".05" fill="#333"/><path d="M1071.17 719h-1v-.5h1z" fill="#333"/><path d="M1071.2 719.02h-1.06v-.56h1.05zm-1-.5v.46h.94v-.47zM1067.56 575.94l-.86.5-9.75-16.48-9.75 16.5-.86-.52 10.6-17.94z" stroke="#333" stroke-width=".05" fill="#333"/><use xlink:href="#B" transform="matrix(1,0,0,1,987.4592985090916,627.7) translate(0.0049999999999954525 14.4)"/><path d="M1240.5 599.1h-1v-4.95h1zm0-9.9h-1v-9.87h1zm0-31.9h-1v-7.62h1zm0-12.56h-1v-9.9h1zm0-14.83h-1v-9.87h1zm0-14.8h-1v-9.9h1zm0-14.84h-1v-9.88h1zm-1.36-25.44l.75 1.82.45 1.9.15 1.94v4.96h-1v-4.92l-.14-1.82-.42-1.75-.7-1.67-.3-.5.85-.52zm-9.18-6.67l1.9.46 1.82.76.56.35-.52.86-.5-.3-1.67-.7-1.75-.42-1.82-.14h-4.4v-1h4.44zm-24.04.85h-4.42v-1h4.42zm13.25 0h-8.84v-1h8.84z" stroke="#333" stroke-width=".05" fill="#333"/><path d="M1201.5 469h-.5v-1h.5z" fill="#333"/><path d="M1201.54 469.02h-.57v-1.04h.57zm-.5-1v.96h.45v-.96zM1250.6 582.06L1240 600l-10.6-17.94.85-.5 9.75 16.48 9.75-16.5z" stroke="#333" stroke-width=".05" fill="#333"/><g><use xlink:href="#C" transform="matrix(1,0,0,1,1107.7,557.2883977900553) translate(0.0049999999999954525 14.4)"/></g><path d="M948.5 718.5h-1v-5.06h1zm0-10.1h-1v-10.12h1zm0-15.18h-1v-10.1h1zm0-15.16h-1v-6.4h1zm0-30.34h-1v-10.1h1zm0-15.16h-1v-10.12h1zm0-15.17h-1v-10.12h1zm0-15.18h-1v-10.1h1zm33.4-4.13h-1v-5.37h1zm-1.37-21.78l.75 1.82.46 1.9.15 1.94v5.38h-1v-5.34l-.15-1.82-.42-1.75-.7-1.67-.3-.5.85-.52zm-30.47-.04l-.3.5-.7 1.67-.42 1.75-.14 1.82v5.04h-1v-5.08l.15-1.94.46-1.9.76-1.82.35-.56zm21.3-6.63l1.9.46 1.8.76.58.35-.53.86-.5-.3-1.65-.7-1.76-.42-1.83-.14h-9.35l-1.82.14-1.75.42-1.67.7-.5.3-.52-.85.56-.34 1.82-.75 1.9-.45 1.94-.15h9.43z" stroke="#333" stroke-width=".05" fill="#333"/><path d="M948.5 719h-1v-.5h1z" fill="#333"/><path d="M948.52 719.02h-1.04v-.56h1.04zm-1-.5v.46h.96v-.47zM992 581.06L981.4 599l-10.62-17.94.86-.5 9.75 16.48 9.74-16.5z" stroke="#333" stroke-width=".05" fill="#333"/><g><use xlink:href="#D" transform="matrix(1,0,0,1,896.575,650.0673913043479) translate(0.005000000000002558 14.4)"/></g><path d="M1311.9 295.1h-1v-4.84h1zm0-9.67h-1v-9.66h1zm0-14.48h-1v-9.66h1zm0-14.5h-1v-9.65h1zm0-14.48h-1v-9.66h1zm0-32.27h-1v-6.36h1zm0-11.2h-1v-9.65h1zm0-14.47h-1v-9.66h1zm0-14.5h-1v-9.65h1zm-1.37-24.98l.75 1.8.46 1.92.15 1.93v4.85h-1v-4.8l-.15-1.83-.42-1.75-.7-1.67-.3-.5.86-.52zm-9.18-6.68l1.9.46 1.82.75.57.35-.52.85-.5-.3-1.67-.7-1.76-.4-1.83-.16h-4.95v-1h5zm-414.87.85h-4.98v-1h4.98zm14.92 0h-9.95v-1h9.95zm14.93 0h-9.96v-1h9.96zm14.92 0h-9.95v-1h9.95zm14.92 0h-9.95v-1h9.95zm14.93 0h-9.95v-1h9.95zm14.92 0h-9.95v-1h9.95zm14.93 0H981v-1h9.95zm14.92 0h-9.95v-1h9.95zm14.93 0h-9.95v-1h9.95zm14.92 0h-9.95v-1h9.95zm14.93 0h-9.95v-1h9.95zm14.92 0h-9.95v-1h9.95zm14.93 0h-9.95v-1h9.95zm14.92 0h-9.95v-1h9.95zm14.93 0h-9.95v-1h9.95zm14.92 0h-9.95v-1h9.95zm14.93 0h-9.95v-1h9.95zm14.92 0h-9.95v-1h9.95zm14.93 0h-9.95v-1h9.95zm14.92 0h-9.95v-1h9.95zm14.93 0h-9.95v-1h9.95zm14.92 0h-9.95v-1h9.95zm14.92 0h-9.94v-1h9.94zm14.93 0h-9.95v-1h9.95zm14.92 0h-9.95v-1h9.94zm14.92 0h-9.95v-1h9.95zm14.92 0h-9.95v-1h9.94z" stroke="#333" stroke-width=".05" fill="#333"/><path d="M881.5 138.72h-.5v-1h.5z" fill="#333"/><path d="M881.54 138.75h-.56v-1.05h.56zm-.5-1v.95h.45v-.95zM1322 278.06L1311.4 296l-10.62-17.94.86-.5 9.75 16.48 9.74-16.5z" stroke="#333" stroke-width=".05" fill="#333"/><g><use xlink:href="#E" transform="matrix(1,0,0,1,1222.994225875125,209.70114867536068) translate(0.0049999999999954525 14.4)"/></g><path d="M1099.76 378.5h-1v-5.36h1zm0-10.72h-1v-10.72h1zm0-16.1h-1V341h1zm0-16.07h-1v-2.56h1zm0-24.16h-1v-2.63h1zm0-8h-1v-10.72h1zm60.74-4.35h-1v-5.7h1zm-1.36-22.78l.75 1.82.45 1.9.15 1.94v5.72h-1v-5.68l-.14-1.82-.42-1.75-.7-1.67-.3-.5.85-.52zm-57.82-.04l-.3.5-.7 1.67-.42 1.75-.14 1.82v5.34h-1v-5.38l.15-1.94.47-1.9.75-1.82.35-.56zm16.06-5.78h-6.1l-1.82.14-1.76.42-1.66.7-.5.3-.53-.85.58-.34 1.8-.75 1.92-.45 1.94-.15h6.14zm32.58-.85l1.9.46 1.82.76.56.35-.52.86-.5-.3-1.67-.7-1.75-.42-1.82-.14h-6.1v-1h6.14zm-14.2.85h-12.26v-1h12.25z" stroke="#333" stroke-width=".05" fill="#333"/><path d="M1099.76 379h-1v-.5h1z" fill="#333"/><path d="M1099.78 379.02h-1.05v-.56h1.05zm-1-.5v.46h.95v-.47zM1170.6 282.06L1160 300l-10.6-17.94.85-.5 9.75 16.48 9.75-16.5z" stroke="#333" stroke-width=".05" fill="#333"/><g><use xlink:href="#D" transform="matrix(1,0,0,1,1047.8317215076954,311.4423470950828) translate(0.005000000000002558 14.4)"/></g><path d="M911.04 378.5h-1v-4.94h1zm0-9.88h-1v-9.87h1zm0-14.8h-1v-9.88h1zm0-14.82h-1v-9.87h1zm0-14.8h-1v-3h1zm0-24.6h-1v-.1h1zm0-5.04h-1v-7.25h1zm0-29.62h-1v-9.88h1zm0-14.8h-1v-9.9h1zm0-14.82h-1v-9.88h1zm-1.36-25.43l.75 1.8.46 1.9.14 1.94v4.96h-1v-4.9l-.14-1.83-.42-1.76-.7-1.66-.3-.5.85-.52zm-9.18-6.68l1.9.46 1.82.75.56.34-.52.86-.5-.3-1.67-.7-1.76-.42-1.82-.13H893v-1h5.56zm-13.05.84h-5.54v-1h5.55z" stroke="#333" stroke-width=".05" fill="#333"/><path d="M911.04 379h-1v-.5h1z" fill="#333"/><path d="M911.07 379.02h-1.05v-.56h1.05zm-1-.5v.46h.95v-.47zM899.45 193.8l-16.5 9.76 16.5 9.75-.5.88L881 203.56l17.94-10.6z" stroke="#333" stroke-width=".05" fill="#333"/><g><use xlink:href="#F" transform="matrix(1,0,0,1,864.5905661762215,265.71220278759546) translate(0.005000000000002558 14.4)"/></g><g><use xlink:href="#G" transform="matrix(1,0,0,1,838.5905661762215,299.5959234986353) translate(0.0049999999999954525 14.4)"/></g><path d="M612.5 718.5h-1v-5.07h1zm0-10.13h-1v-10.14h1zm0-15.2h-1v-10.14h1zm0-15.2h-1v-10.14h1zm0-15.2h-1v-10.14h1zm0-15.2h-1v-10.14h1zm0-15.2h-1v-10.14h1zm0-15.2h-1v-10.14h1zm0-15.2h-1v-10.14h1zm0-15.2h-1v-10.14h1zm0-15.2h-1v-10.14h1zm0-15.2h-1v-10.14h1zm0-15.2h-1v-10.14h1zm0-15.2h-1v-10.14h1zm0-15.2h-1v-9.47h1zm0-31.07h-1v-9.43h1zm0-14.5h-1v-10.1h1zm0-15.16h-1v-10.12h1zm0-15.17h-1v-10.12h1zm0-15.18h-1v-10.12h1zm0-15.18h-1v-10.1h1zm0-15.17h-1v-10.12h1zm0-15.17h-1v-10.12h1zm0-15.18h-1v-10.1h1zm0-15.17h-1v-10.1h1zm0-15.17h-1v-10.12h1zm0-15.17h-1v-10.13h1zm0-15.2h-1v-10.1h1zm0-15.16h-1v-10.12h1zm0-15.17h-1v-5.06h1z" stroke="#333" stroke-width=".05" fill="#333"/><path d="M612.5 719h-1v-.5h1z" fill="#333"/><path d="M612.52 719.02h-1.04v-.56h1.04zm-1-.5v.46h.96v-.47zM622.6 279.94l-.85.5-9.75-16.48-9.75 16.5-.86-.52L612 262z" stroke="#333" stroke-width=".05" fill="#333"/><g><use xlink:href="#F" transform="matrix(1,0,0,1,566.05,479.7) translate(0.005000000000002558 14.4)"/></g><path d="M704.5 718.5h-1v-4.96h1zm0-9.92h-1v-9.92h1zm0-14.88h-1v-9.92h1zm0-14.88h-1v-9.92h1zm0-14.88h-1v-9.92h1zm0-14.88h-1v-9.92h1zm0-14.88h-1v-9.92h1zm0-14.88h-1v-9.9h1zm0-14.88h-1v-9.9h1zm0-14.87h-1v-9.92h1zm0-14.88h-1v-9.92h1zm0-14.88h-1v-9.93h1zm0-14.9h-1V535h1zm0-14.87h-1v-9.92h1zm0-14.88h-1v-9.92h1zm0-14.88h-1v-9.92h1zm0-14.88h-1v-9.93h1zm0-14.9h-1v-9.9h1zm0-14.87h-1v-9.92h1zm0-35.3h-1v-4.38h1zm0-9.34h-1v-9.93h1zm0-14.88h-1v-9.93h1zm0-14.88h-1v-9.92h1zm0-14.88h-1v-9.92h1zm0-14.88h-1v-9.92h1zm0-14.88h-1v-9.92h1zm0-14.88h-1v-9.92h1zm0-14.88h-1v-9.92h1zm59.95-25.52l.75 1.82.45 1.9.16 1.94v8.1h-1v-8.06l-.14-1.82-.42-1.75-.7-1.67-.3-.5.86-.52zm-58.4-.04l-.3.5-.7 1.67-.4 1.75-.15 1.82v4.94h-1v-4.98l.15-1.94.46-1.9.76-1.82.35-.56zm16.17-5.78h-6.2l-1.82.14-1.75.42-1.67.7-.5.3-.52-.85.56-.34 1.82-.75 1.9-.45 1.94-.15h6.24zm33.04-.85l1.9.46 1.82.76.57.35-.52.86-.5-.3-1.67-.7-1.75-.42-1.8-.14h-6.2v-1h6.23zm-14.4.85h-12.43v-1h12.44z" stroke="#333" stroke-width=".05" fill="#333"/><path d="M704.5 719h-1v-.5h1z" fill="#333"/><path d="M704.52 719.02h-1.04v-.56h1.04zm-1-.5v.46h.96v-.47zM775.92 278.06L765.32 296l-10.63-17.94.86-.5 9.75 16.48 9.76-16.5z" stroke="#333" stroke-width=".05" fill="#333"/><g><use xlink:href="#D" transform="matrix(1,0,0,1,652.575,420.3427738442316) translate(0.005000000000002558 14.4)"/></g><defs><path fill="#333" d="M212-179c-10-28-35-45-73-45-59 0-87 40-87 99 0 60 29 101 89 101 43 0 62-24 78-52l27 14C228-24 195 4 139 4 59 4 22-46 18-125c-6-104 99-153 187-111 19 9 31 26 39 46" id="H"/><path fill="#333" d="M141-36C126-15 110 5 73 4 37 3 15-17 15-53c-1-64 63-63 125-63 3-35-9-54-41-54-24 1-41 7-42 31l-33-3c5-37 33-52 76-52 45 0 72 20 72 64v82c-1 20 7 32 28 27v20c-31 9-61-2-59-35zM48-53c0 20 12 33 32 33 41-3 63-29 60-74-43 2-92-5-92 41" id="I"/><path fill="#333" d="M24 0v-261h32V0H24" id="J"/><path fill="#333" d="M240 0l2-218c-23 76-54 145-80 218h-23L58-218 59 0H30v-248h44l77 211c21-75 51-140 76-211h43V0h-30" id="K"/><path fill="#333" d="M100-194c62-1 85 37 85 99 1 63-27 99-86 99S16-35 15-95c0-66 28-99 85-99zM99-20c44 1 53-31 53-75 0-43-8-75-51-75s-53 32-53 75 10 74 51 75" id="L"/><path fill="#333" d="M85-194c31 0 48 13 60 33l-1-100h32l1 261h-30c-2-10 0-23-3-31C134-8 116 4 85 4 32 4 16-35 15-94c0-66 23-100 70-100zm9 24c-40 0-46 34-46 75 0 40 6 74 45 74 42 0 51-32 51-76 0-42-9-74-50-73" id="M"/><path fill="#333" d="M100-194c63 0 86 42 84 106H49c0 40 14 67 53 68 26 1 43-12 49-29l28 8c-11 28-37 45-77 45C44 4 14-33 15-96c1-61 26-98 85-98zm52 81c6-60-76-77-97-28-3 7-6 17-6 28h103" id="N"/><path fill="#333" d="M117-194c89-4 53 116 60 194h-32v-121c0-31-8-49-39-48C34-167 62-67 57 0H25l-1-190h30c1 10-1 24 2 32 11-22 29-35 61-36" id="O"/><path fill="#333" d="M59-47c-2 24 18 29 38 22v24C64 9 27 4 27-40v-127H5v-23h24l9-43h21v43h35v23H59v120" id="P"/><path fill="#333" d="M141 0L90-78 38 0H4l68-98-65-92h35l48 74 47-74h35l-64 92 68 98h-35" id="Q"/><g id="a"><use transform="matrix(0.05,0,0,0.05,0,0)" xlink:href="#H"/><use transform="matrix(0.05,0,0,0.05,12.950000000000001,0)" xlink:href="#I"/><use transform="matrix(0.05,0,0,0.05,22.950000000000003,0)" xlink:href="#J"/><use transform="matrix(0.05,0,0,0.05,26.900000000000002,0)" xlink:href="#K"/><use transform="matrix(0.05,0,0,0.05,41.85,0)" xlink:href="#L"/><use transform="matrix(0.05,0,0,0.05,51.85,0)" xlink:href="#M"/><use transform="matrix(0.05,0,0,0.05,61.85,0)" xlink:href="#N"/><use transform="matrix(0.05,0,0,0.05,71.85,0)" xlink:href="#J"/><use transform="matrix(0.05,0,0,0.05,75.8,0)" xlink:href="#H"/><use transform="matrix(0.05,0,0,0.05,88.75,0)" xlink:href="#L"/><use transform="matrix(0.05,0,0,0.05,98.75,0)" xlink:href="#O"/><use transform="matrix(0.05,0,0,0.05,108.75,0)" xlink:href="#P"/><use transform="matrix(0.05,0,0,0.05,113.75,0)" xlink:href="#N"/><use transform="matrix(0.05,0,0,0.05,123.75,0)" xlink:href="#Q"/><use transform="matrix(0.05,0,0,0.05,132.75,0)" xlink:href="#P"/></g><path fill="#333" d="M114-163C36-179 61-72 57 0H25l-1-190h30c1 12-1 29 2 39 6-27 23-49 58-41v29" id="R"/><g id="b"><use transform="matrix(0.05,0,0,0.05,0,0)" xlink:href="#H"/><use transform="matrix(0.05,0,0,0.05,12.950000000000001,0)" xlink:href="#I"/><use transform="matrix(0.05,0,0,0.05,22.950000000000003,0)" xlink:href="#J"/><use transform="matrix(0.05,0,0,0.05,26.900000000000002,0)" xlink:href="#H"/><use transform="matrix(0.05,0,0,0.05,39.85,0)" xlink:href="#L"/><use transform="matrix(0.05,0,0,0.05,49.85,0)" xlink:href="#O"/><use transform="matrix(0.05,0,0,0.05,59.85,0)" xlink:href="#P"/><use transform="matrix(0.05,0,0,0.05,64.85,0)" xlink:href="#R"/><use transform="matrix(0.05,0,0,0.05,70.8,0)" xlink:href="#L"/><use transform="matrix(0.05,0,0,0.05,80.8,0)" xlink:href="#J"/><use transform="matrix(0.05,0,0,0.05,84.75,0)" xlink:href="#J"/><use transform="matrix(0.05,0,0,0.05,88.7,0)" xlink:href="#N"/><use transform="matrix(0.05,0,0,0.05,98.7,0)" xlink:href="#R"/><use transform="matrix(0.05,0,0,0.05,104.65,0)" xlink:href="#H"/><use transform="matrix(0.05,0,0,0.05,117.60000000000001,0)" xlink:href="#L"/><use transform="matrix(0.05,0,0,0.05,127.60000000000001,0)" xlink:href="#O"/><use transform="matrix(0.05,0,0,0.05,137.60000000000002,0)" xlink:href="#P"/><use transform="matrix(0.05,0,0,0.05,142.60000000000002,0)" xlink:href="#N"/><use transform="matrix(0.05,0,0,0.05,152.60000000000002,0)" xlink:href="#Q"/><use transform="matrix(0.05,0,0,0.05,161.60000000000002,0)" xlink:href="#P"/></g><g id="c"><use transform="matrix(0.05,0,0,0.05,0,0)" xlink:href="#H"/><use transform="matrix(0.05,0,0,0.05,12.950000000000001,0)" xlink:href="#I"/><use transform="matrix(0.05,0,0,0.05,22.950000000000003,0)" xlink:href="#J"/><use transform="matrix(0.05,0,0,0.05,26.900000000000002,0)" xlink:href="#K"/><use transform="matrix(0.05,0,0,0.05,41.85,0)" xlink:href="#L"/><use transform="matrix(0.05,0,0,0.05,51.85,0)" xlink:href="#M"/><use transform="matrix(0.05,0,0,0.05,61.85,0)" xlink:href="#N"/><use transform="matrix(0.05,0,0,0.05,71.85,0)" xlink:href="#J"/></g><path fill="#333" d="M16-82v-28h88v28H16" id="S"/><use transform="matrix(0.05,0,0,0.05,0,0)" xlink:href="#S" id="d"/><path fill="#333" d="M108 0H70L1-190h34L89-25l56-165h34" id="T"/><path fill="#333" d="M135-143c-3-34-86-38-87 0 15 53 115 12 119 90S17 21 10-45l28-5c4 36 97 45 98 0-10-56-113-15-118-90-4-57 82-63 122-42 12 7 21 19 24 35" id="U"/><path fill="#333" d="M33-154v-36h34v36H33zM33 0v-36h34V0H33" id="V"/><g id="e"><use transform="matrix(0.05,0,0,0.05,0,0)" xlink:href="#N"/><use transform="matrix(0.05,0,0,0.05,10,0)" xlink:href="#T"/><use transform="matrix(0.05,0,0,0.05,19,0)" xlink:href="#N"/><use transform="matrix(0.05,0,0,0.05,29,0)" xlink:href="#O"/><use transform="matrix(0.05,0,0,0.05,39,0)" xlink:href="#P"/><use transform="matrix(0.05,0,0,0.05,44,0)" xlink:href="#U"/><use transform="matrix(0.05,0,0,0.05,53,0)" xlink:href="#V"/></g><path fill="#333" d="M30 0v-248h187v28H63v79h144v27H63v87h162V0H30" id="W"/><path fill="#333" d="M26 75v-336h71v23H56V52h41v23H26" id="X"/><path fill="#333" d="M3 75V52h41v-290H3v-23h71V75H3" id="Y"/><g id="f"><use transform="matrix(0.05,0,0,0.05,0,0)" xlink:href="#H"/><use transform="matrix(0.05,0,0,0.05,12.950000000000001,0)" xlink:href="#I"/><use transform="matrix(0.05,0,0,0.05,22.950000000000003,0)" xlink:href="#J"/><use transform="matrix(0.05,0,0,0.05,26.900000000000002,0)" xlink:href="#W"/><use transform="matrix(0.05,0,0,0.05,38.900000000000006,0)" xlink:href="#T"/><use transform="matrix(0.05,0,0,0.05,47.900000000000006,0)" xlink:href="#N"/><use transform="matrix(0.05,0,0,0.05,57.900000000000006,0)" xlink:href="#O"/><use transform="matrix(0.05,0,0,0.05,67.9,0)" xlink:href="#P"/><use transform="matrix(0.05,0,0,0.05,72.9,0)" xlink:href="#X"/><use transform="matrix(0.05,0,0,0.05,77.9,0)" xlink:href="#Y"/></g><path fill="#333" d="M118-107v75H92v-75H18v-26h74v-75h26v75h74v26h-74" id="Z"/><path fill="#333" d="M177-190C167-65 218 103 67 71c-23-6-38-20-44-43l32-5c15 47 100 32 89-28v-30C133-14 115 1 83 1 29 1 15-40 15-95c0-56 16-97 71-98 29-1 48 16 59 35 1-10 0-23 2-32h30zM94-22c36 0 50-32 50-73 0-42-14-75-50-75-39 0-46 34-46 75s6 73 46 73" id="aa"/><path fill="#333" d="M87 75C49 33 22-17 22-94c0-76 28-126 65-167h31c-38 41-64 92-64 168S80 34 118 75H87" id="ab"/><path fill="#333" d="M33-261c38 41 65 92 65 168S71 34 33 75H2C39 34 66-17 66-93S39-220 2-261h31" id="ac"/><g id="g"><use transform="matrix(0.05,0,0,0.05,0,0)" xlink:href="#Z"/><use transform="matrix(0.05,0,0,0.05,10.5,0)" xlink:href="#aa"/><use transform="matrix(0.05,0,0,0.05,20.5,0)" xlink:href="#N"/><use transform="matrix(0.05,0,0,0.05,30.5,0)" xlink:href="#P"/><use transform="matrix(0.05,0,0,0.05,35.5,0)" xlink:href="#W"/><use transform="matrix(0.05,0,0,0.05,47.5,0)" xlink:href="#T"/><use transform="matrix(0.05,0,0,0.05,56.5,0)" xlink:href="#N"/><use transform="matrix(0.05,0,0,0.05,66.5,0)" xlink:href="#O"/><use transform="matrix(0.05,0,0,0.05,76.5,0)" xlink:href="#P"/><use transform="matrix(0.05,0,0,0.05,81.5,0)" xlink:href="#U"/><use transform="matrix(0.05,0,0,0.05,90.5,0)" xlink:href="#ab"/><use transform="matrix(0.05,0,0,0.05,96.45,0)" xlink:href="#ac"/><use transform="matrix(0.05,0,0,0.05,102.4,0)" xlink:href="#V"/></g><g id="h"><use transform="matrix(0.05,0,0,0.05,0,0)" xlink:href="#H"/><use transform="matrix(0.05,0,0,0.05,12.950000000000001,0)" xlink:href="#I"/><use transform="matrix(0.05,0,0,0.05,22.950000000000003,0)" xlink:href="#J"/><use transform="matrix(0.05,0,0,0.05,26.900000000000002,0)" xlink:href="#W"/><use transform="matrix(0.05,0,0,0.05,38.900000000000006,0)" xlink:href="#T"/><use transform="matrix(0.05,0,0,0.05,47.900000000000006,0)" xlink:href="#N"/><use transform="matrix(0.05,0,0,0.05,57.900000000000006,0)" xlink:href="#O"/><use transform="matrix(0.05,0,0,0.05,67.9,0)" xlink:href="#P"/><use transform="matrix(0.05,0,0,0.05,72.9,0)" xlink:href="#X"/><use transform="matrix(0.05,0,0,0.05,77.9,0)" xlink:href="#Y"/></g><g id="i"><use transform="matrix(0.05,0,0,0.05,0,0)" xlink:href="#Z"/><use transform="matrix(0.05,0,0,0.05,10.5,0)" xlink:href="#U"/><use transform="matrix(0.05,0,0,0.05,19.5,0)" xlink:href="#N"/><use transform="matrix(0.05,0,0,0.05,29.5,0)" xlink:href="#P"/><use transform="matrix(0.05,0,0,0.05,34.5,0)" xlink:href="#W"/><use transform="matrix(0.05,0,0,0.05,46.5,0)" xlink:href="#T"/><use transform="matrix(0.05,0,0,0.05,55.5,0)" xlink:href="#N"/><use transform="matrix(0.05,0,0,0.05,65.5,0)" xlink:href="#O"/><use transform="matrix(0.05,0,0,0.05,75.5,0)" xlink:href="#P"/><use transform="matrix(0.05,0,0,0.05,80.5,0)" xlink:href="#U"/><use transform="matrix(0.05,0,0,0.05,89.5,0)" xlink:href="#ab"/><use transform="matrix(0.05,0,0,0.05,95.45,0)" xlink:href="#N"/><use transform="matrix(0.05,0,0,0.05,105.45,0)" xlink:href="#T"/><use transform="matrix(0.05,0,0,0.05,114.45,0)" xlink:href="#N"/><use transform="matrix(0.05,0,0,0.05,124.45,0)" xlink:href="#O"/><use transform="matrix(0.05,0,0,0.05,134.45,0)" xlink:href="#P"/><use transform="matrix(0.05,0,0,0.05,139.45,0)" xlink:href="#U"/><use transform="matrix(0.05,0,0,0.05,148.45,0)" xlink:href="#V"/></g><g id="j"><use transform="matrix(0.05,0,0,0.05,0,0)" xlink:href="#H"/><use transform="matrix(0.05,0,0,0.05,12.950000000000001,0)" xlink:href="#I"/><use transform="matrix(0.05,0,0,0.05,22.950000000000003,0)" xlink:href="#J"/><use transform="matrix(0.05,0,0,0.05,26.900000000000002,0)" xlink:href="#W"/><use transform="matrix(0.05,0,0,0.05,38.900000000000006,0)" xlink:href="#T"/><use transform="matrix(0.05,0,0,0.05,47.900000000000006,0)" xlink:href="#N"/><use transform="matrix(0.05,0,0,0.05,57.900000000000006,0)" xlink:href="#O"/><use transform="matrix(0.05,0,0,0.05,67.9,0)" xlink:href="#P"/><use transform="matrix(0.05,0,0,0.05,72.9,0)" xlink:href="#X"/><use transform="matrix(0.05,0,0,0.05,77.9,0)" xlink:href="#Y"/><use transform="matrix(0.05,0,0,0.05,82.9,0)" xlink:href="#ac"/></g><path fill="#333" d="M127-220V0H93v-220H8v-28h204v28h-85" id="ad"/><path fill="#333" d="M30 0v-248h33v221h125V0H30" id="ae"/><path fill="#333" d="M96-169c-40 0-48 33-48 73s9 75 48 75c24 0 41-14 43-38l32 2c-6 37-31 61-74 61-59 0-76-41-82-99-10-93 101-131 147-64 4 7 5 14 7 22l-32 3c-4-21-16-35-41-35" id="af"/><path fill="#333" d="M185-189c-5-48-123-54-124 2 14 75 158 14 163 119 3 78-121 87-175 55-17-10-28-26-33-46l33-7c5 56 141 63 141-1 0-78-155-14-162-118-5-82 145-84 179-34 5 7 8 16 11 25" id="ag"/><g id="k"><use transform="matrix(0.05,0,0,0.05,0,0)" xlink:href="#S"/><use transform="matrix(0.05,0,0,0.05,5.95,0)" xlink:href="#U"/><use transform="matrix(0.05,0,0,0.05,14.949999999999998,0)" xlink:href="#I"/><use transform="matrix(0.05,0,0,0.05,24.95,0)" xlink:href="#T"/><use transform="matrix(0.05,0,0,0.05,33.95,0)" xlink:href="#N"/><use transform="matrix(0.05,0,0,0.05,43.95,0)" xlink:href="#ad"/><use transform="matrix(0.05,0,0,0.05,52.900000000000006,0)" xlink:href="#L"/><use transform="matrix(0.05,0,0,0.05,62.900000000000006,0)" xlink:href="#ae"/><use transform="matrix(0.05,0,0,0.05,72.9,0)" xlink:href="#L"/><use transform="matrix(0.05,0,0,0.05,82.9,0)" xlink:href="#af"/><use transform="matrix(0.05,0,0,0.05,91.9,0)" xlink:href="#I"/><use transform="matrix(0.05,0,0,0.05,101.9,0)" xlink:href="#J"/><use transform="matrix(0.05,0,0,0.05,105.85000000000001,0)" xlink:href="#ag"/><use transform="matrix(0.05,0,0,0.05,117.85000000000001,0)" xlink:href="#P"/><use transform="matrix(0.05,0,0,0.05,122.85000000000001,0)" xlink:href="#L"/><use transform="matrix(0.05,0,0,0.05,132.85000000000002,0)" xlink:href="#R"/><use transform="matrix(0.05,0,0,0.05,138.8,0)" xlink:href="#N"/><use transform="matrix(0.05,0,0,0.05,148.8,0)" xlink:href="#ab"/><use transform="matrix(0.05,0,0,0.05,154.75,0)" xlink:href="#ac"/></g><path fill="#333" d="M63-220v92h138v28H63V0H30v-248h175v28H63" id="ah"/><path fill="#333" d="M210-169c-67 3-38 105-44 169h-31v-121c0-29-5-50-35-48C34-165 62-65 56 0H25l-1-190h30c1 10-1 24 2 32 10-44 99-50 107 0 11-21 27-35 58-36 85-2 47 119 55 194h-31v-121c0-29-5-49-35-48" id="ai"/><g id="l"><use transform="matrix(0.05,0,0,0.05,0,0)" xlink:href="#S"/><use transform="matrix(0.05,0,0,0.05,5.95,0)" xlink:href="#J"/><use transform="matrix(0.05,0,0,0.05,9.9,0)" xlink:href="#L"/><use transform="matrix(0.05,0,0,0.05,19.9,0)" xlink:href="#I"/><use transform="matrix(0.05,0,0,0.05,29.899999999999995,0)" xlink:href="#M"/><use transform="matrix(0.05,0,0,0.05,39.9,0)" xlink:href="#ah"/><use transform="matrix(0.05,0,0,0.05,50.85,0)" xlink:href="#R"/><use transform="matrix(0.05,0,0,0.05,56.800000000000004,0)" xlink:href="#L"/><use transform="matrix(0.05,0,0,0.05,66.80000000000001,0)" xlink:href="#ai"/><use transform="matrix(0.05,0,0,0.05,81.75000000000001,0)" xlink:href="#ae"/><use transform="matrix(0.05,0,0,0.05,91.75000000000001,0)" xlink:href="#L"/><use transform="matrix(0.05,0,0,0.05,101.75000000000001,0)" xlink:href="#af"/><use transform="matrix(0.05,0,0,0.05,110.75,0)" xlink:href="#I"/><use transform="matrix(0.05,0,0,0.05,120.75,0)" xlink:href="#J"/><use transform="matrix(0.05,0,0,0.05,124.7,0)" xlink:href="#ag"/><use transform="matrix(0.05,0,0,0.05,136.70000000000002,0)" xlink:href="#P"/><use transform="matrix(0.05,0,0,0.05,141.70000000000002,0)" xlink:href="#L"/><use transform="matrix(0.05,0,0,0.05,151.70000000000002,0)" xlink:href="#R"/><use transform="matrix(0.05,0,0,0.05,157.65,0)" xlink:href="#N"/><use transform="matrix(0.05,0,0,0.05,167.65,0)" xlink:href="#ab"/><use transform="matrix(0.05,0,0,0.05,173.6,0)" xlink:href="#ac"/></g><g id="m"><use transform="matrix(0.05,0,0,0.05,0,0)" xlink:href="#H"/><use transform="matrix(0.05,0,0,0.05,12.950000000000001,0)" xlink:href="#I"/><use transform="matrix(0.05,0,0,0.05,22.950000000000003,0)" xlink:href="#J"/><use transform="matrix(0.05,0,0,0.05,26.900000000000002,0)" xlink:href="#H"/><use transform="matrix(0.05,0,0,0.05,39.85,0)" xlink:href="#L"/><use transform="matrix(0.05,0,0,0.05,49.85,0)" xlink:href="#O"/><use transform="matrix(0.05,0,0,0.05,59.85,0)" xlink:href="#P"/><use transform="matrix(0.05,0,0,0.05,64.85,0)" xlink:href="#R"/><use transform="matrix(0.05,0,0,0.05,70.8,0)" xlink:href="#L"/><use transform="matrix(0.05,0,0,0.05,80.8,0)" xlink:href="#J"/><use transform="matrix(0.05,0,0,0.05,84.75,0)" xlink:href="#J"/><use transform="matrix(0.05,0,0,0.05,88.7,0)" xlink:href="#N"/><use transform="matrix(0.05,0,0,0.05,98.7,0)" xlink:href="#R"/></g><g id="n"><use transform="matrix(0.05,0,0,0.05,0,0)" xlink:href="#S"/><use transform="matrix(0.05,0,0,0.05,5.95,0)" xlink:href="#aa"/><use transform="matrix(0.05,0,0,0.05,15.949999999999998,0)" xlink:href="#N"/><use transform="matrix(0.05,0,0,0.05,25.950000000000003,0)" xlink:href="#P"/><use transform="matrix(0.05,0,0,0.05,30.950000000000003,0)" xlink:href="#W"/><use transform="matrix(0.05,0,0,0.05,42.95,0)" xlink:href="#T"/><use transform="matrix(0.05,0,0,0.05,51.95,0)" xlink:href="#N"/><use transform="matrix(0.05,0,0,0.05,61.95,0)" xlink:href="#O"/><use transform="matrix(0.05,0,0,0.05,71.95,0)" xlink:href="#P"/><use transform="matrix(0.05,0,0,0.05,76.95,0)" xlink:href="#U"/><use transform="matrix(0.05,0,0,0.05,85.95,0)" xlink:href="#V"/></g><path fill="#333" d="M101-234c-31-9-42 10-38 44h38v23H63V0H32v-167H5v-23h27c-7-52 17-82 69-68v24" id="aj"/><path fill="#333" d="M84 4C-5 8 30-112 23-190h32v120c0 31 7 50 39 49 72-2 45-101 50-169h31l1 190h-30c-1-10 1-25-2-33-11 22-28 36-60 37" id="ak"/><path fill="#333" d="M24-231v-30h32v30H24zM24 0v-190h32V0H24" id="al"/><g id="o"><use transform="matrix(0.05,0,0,0.05,0,0)" xlink:href="#aj"/><use transform="matrix(0.05,0,0,0.05,5,0)" xlink:href="#ak"/><use transform="matrix(0.05,0,0,0.05,15,0)" xlink:href="#O"/><use transform="matrix(0.05,0,0,0.05,25,0)" xlink:href="#af"/><use transform="matrix(0.05,0,0,0.05,34,0)" xlink:href="#P"/><use transform="matrix(0.05,0,0,0.05,39,0)" xlink:href="#al"/><use transform="matrix(0.05,0,0,0.05,42.95,0)" xlink:href="#L"/><use transform="matrix(0.05,0,0,0.05,52.95,0)" xlink:href="#O"/></g><path fill="#333" d="M106-169C34-169 62-67 57 0H25v-261h32l-1 103c12-21 28-36 61-36 89 0 53 116 60 194h-32v-121c2-32-8-49-39-48" id="am"/><g id="p"><use transform="matrix(0.05,0,0,0.05,0,0)" xlink:href="#am"/><use transform="matrix(0.05,0,0,0.05,10,0)" xlink:href="#I"/><use transform="matrix(0.05,0,0,0.05,20,0)" xlink:href="#O"/><use transform="matrix(0.05,0,0,0.05,30,0)" xlink:href="#M"/><use transform="matrix(0.05,0,0,0.05,40,0)" xlink:href="#J"/><use transform="matrix(0.05,0,0,0.05,43.95,0)" xlink:href="#N"/></g><path fill="#333" d="M4 7l51-268h42L46 7H4" id="an"/><g id="q"><use transform="matrix(0.05,0,0,0.05,0,0)" xlink:href="#an"/><use transform="matrix(0.05,0,0,0.05,5,0)" xlink:href="#an"/></g><path fill="#333" d="M135-150c-39-12-60 13-60 57V0H25l-1-190h47c2 13-1 29 3 40 6-28 27-53 61-41v41" id="ao"/><path fill="#333" d="M185-48c-13 30-37 53-82 52C43 2 14-33 14-96s30-98 90-98c62 0 83 45 84 108H66c0 31 8 55 39 56 18 0 30-7 34-22zm-45-69c5-46-57-63-70-21-2 6-4 13-4 21h74" id="ap"/><path fill="#333" d="M121-226c-27-7-43 5-38 36h38v33H83V0H34v-157H6v-33h28c-9-59 32-81 87-68v32" id="aq"/><path fill="#333" d="M24 0v-54h51V0H24" id="ar"/><g id="r"><use transform="matrix(0.05,0,0,0.05,0,0)" xlink:href="#ao"/><use transform="matrix(0.05,0,0,0.05,7,0)" xlink:href="#ap"/><use transform="matrix(0.05,0,0,0.05,17,0)" xlink:href="#aq"/><use transform="matrix(0.05,0,0,0.05,22.95,0)" xlink:href="#ar"/></g><path fill="#333" d="M110-194c64 0 96 36 96 99 0 64-35 99-97 99-61 0-95-36-95-99 0-62 34-99 96-99zm-1 164c35 0 45-28 45-65 0-40-10-65-43-65-34 0-45 26-45 65 0 36 10 65 43 65" id="as"/><path fill="#333" d="M220-157c-53 9-28 100-34 157h-49v-107c1-27-5-49-29-50C55-147 81-57 75 0H25l-1-190h47c2 12-1 28 3 38 10-53 101-56 108 0 13-22 24-43 59-42 82 1 51 116 57 194h-49v-107c-1-25-5-48-29-50" id="at"/><g id="s"><use transform="matrix(0.05,0,0,0.05,0,0)" xlink:href="#aq"/><use transform="matrix(0.05,0,0,0.05,5.95,0)" xlink:href="#ao"/><use transform="matrix(0.05,0,0,0.05,12.949999999999998,0)" xlink:href="#as"/><use transform="matrix(0.05,0,0,0.05,23.9,0)" xlink:href="#at"/></g><path fill="#333" d="M190-63c-7 42-38 67-86 67-59 0-84-38-90-98-12-110 154-137 174-36l-49 2c-2-19-15-32-35-32-30 0-35 28-38 64-6 74 65 87 74 30" id="au"/><path fill="#333" d="M135-194c87-1 58 113 63 194h-50c-7-57 23-157-34-157-59 0-34 97-39 157H25l-1-190h47c2 12-1 28 3 38 12-26 28-41 61-42" id="av"/><path fill="#333" d="M115-3C79 11 28 4 28-45v-112H4v-33h27l15-45h31v45h36v33H77v99c-1 23 16 31 38 25v30" id="aw"/><path fill="#333" d="M144 0l-44-69L55 0H2l70-98-66-92h53l41 62 40-62h54l-67 91 71 99h-54" id="ax"/><g id="t"><use transform="matrix(0.05,0,0,0.05,0,0)" xlink:href="#au"/><use transform="matrix(0.05,0,0,0.05,10,0)" xlink:href="#as"/><use transform="matrix(0.05,0,0,0.05,20.950000000000003,0)" xlink:href="#av"/><use transform="matrix(0.05,0,0,0.05,31.900000000000006,0)" xlink:href="#aw"/><use transform="matrix(0.05,0,0,0.05,37.85000000000001,0)" xlink:href="#ap"/><use transform="matrix(0.05,0,0,0.05,47.85000000000001,0)" xlink:href="#ax"/><use transform="matrix(0.05,0,0,0.05,57.85,0)" xlink:href="#aw"/></g><g id="u"><use transform="matrix(0.05,0,0,0.05,0,0)" xlink:href="#S"/><use transform="matrix(0.05,0,0,0.05,5.95,0)" xlink:href="#U"/><use transform="matrix(0.05,0,0,0.05,14.949999999999998,0)" xlink:href="#N"/><use transform="matrix(0.05,0,0,0.05,24.95,0)" xlink:href="#P"/><use transform="matrix(0.05,0,0,0.05,29.950000000000003,0)" xlink:href="#W"/><use transform="matrix(0.05,0,0,0.05,41.95,0)" xlink:href="#T"/><use transform="matrix(0.05,0,0,0.05,50.95,0)" xlink:href="#N"/><use transform="matrix(0.05,0,0,0.05,60.95,0)" xlink:href="#O"/><use transform="matrix(0.05,0,0,0.05,70.95,0)" xlink:href="#P"/><use transform="matrix(0.05,0,0,0.05,75.95,0)" xlink:href="#V"/></g><g id="v"><use transform="matrix(0.05,0,0,0.05,0,0)" xlink:href="#au"/><use transform="matrix(0.05,0,0,0.05,10,0)" xlink:href="#as"/><use transform="matrix(0.05,0,0,0.05,20.950000000000003,0)" xlink:href="#av"/><use transform="matrix(0.05,0,0,0.05,31.900000000000006,0)" xlink:href="#aw"/><use transform="matrix(0.05,0,0,0.05,37.85000000000001,0)" xlink:href="#ap"/><use transform="matrix(0.05,0,0,0.05,47.85000000000001,0)" xlink:href="#ax"/><use transform="matrix(0.05,0,0,0.05,57.85,0)" xlink:href="#aw"/></g><path fill="#333" d="M179-190L93 31C79 59 56 82 12 73V49c39 6 53-20 64-50L1-190h34L92-34l54-156h33" id="ay"/><g id="w"><use transform="matrix(0.05,0,0,0.05,0,0)" xlink:href="#Z"/><use transform="matrix(0.05,0,0,0.05,10.5,0)" xlink:href="#O"/><use transform="matrix(0.05,0,0,0.05,20.5,0)" xlink:href="#L"/><use transform="matrix(0.05,0,0,0.05,30.5,0)" xlink:href="#P"/><use transform="matrix(0.05,0,0,0.05,35.5,0)" xlink:href="#al"/><use transform="matrix(0.05,0,0,0.05,39.45,0)" xlink:href="#aj"/><use transform="matrix(0.05,0,0,0.05,44.45,0)" xlink:href="#ay"/><use transform="matrix(0.05,0,0,0.05,53.45,0)" xlink:href="#H"/><use transform="matrix(0.05,0,0,0.05,66.4,0)" xlink:href="#J"/><use transform="matrix(0.05,0,0,0.05,70.35000000000001,0)" xlink:href="#N"/><use transform="matrix(0.05,0,0,0.05,80.35000000000001,0)" xlink:href="#I"/><use transform="matrix(0.05,0,0,0.05,90.35000000000001,0)" xlink:href="#R"/><use transform="matrix(0.05,0,0,0.05,96.30000000000001,0)" xlink:href="#W"/><use transform="matrix(0.05,0,0,0.05,108.30000000000001,0)" xlink:href="#T"/><use transform="matrix(0.05,0,0,0.05,117.30000000000001,0)" xlink:href="#N"/><use transform="matrix(0.05,0,0,0.05,127.30000000000001,0)" xlink:href="#O"/><use transform="matrix(0.05,0,0,0.05,137.3,0)" xlink:href="#P"/><use transform="matrix(0.05,0,0,0.05,142.3,0)" xlink:href="#U"/><use transform="matrix(0.05,0,0,0.05,151.3,0)" xlink:href="#ab"/><use transform="matrix(0.05,0,0,0.05,157.25,0)" xlink:href="#ac"/><use transform="matrix(0.05,0,0,0.05,163.2,0)" xlink:href="#V"/></g><g id="x"><use transform="matrix(0.05,0,0,0.05,0,0)" xlink:href="#T"/><use transform="matrix(0.05,0,0,0.05,9,0)" xlink:href="#L"/><use transform="matrix(0.05,0,0,0.05,19,0)" xlink:href="#al"/><use transform="matrix(0.05,0,0,0.05,22.95,0)" xlink:href="#M"/></g><g id="y"><use transform="matrix(0.05,0,0,0.05,0,0)" xlink:href="#W"/><use transform="matrix(0.05,0,0,0.05,12,0)" xlink:href="#T"/><use transform="matrix(0.05,0,0,0.05,21,0)" xlink:href="#N"/><use transform="matrix(0.05,0,0,0.05,31,0)" xlink:href="#O"/><use transform="matrix(0.05,0,0,0.05,41,0)" xlink:href="#P"/><use transform="matrix(0.05,0,0,0.05,46,0)" xlink:href="#H"/><use transform="matrix(0.05,0,0,0.05,58.95,0)" xlink:href="#I"/><use transform="matrix(0.05,0,0,0.05,68.95,0)" xlink:href="#J"/><use transform="matrix(0.05,0,0,0.05,72.9,0)" xlink:href="#N"/><use transform="matrix(0.05,0,0,0.05,82.9,0)" xlink:href="#O"/><use transform="matrix(0.05,0,0,0.05,92.9,0)" xlink:href="#M"/><use transform="matrix(0.05,0,0,0.05,102.9,0)" xlink:href="#I"/><use transform="matrix(0.05,0,0,0.05,112.9,0)" xlink:href="#R"/></g><path fill="#333" d="M160-131c35 5 61 23 61 61C221 17 115-2 30 0v-248c76 3 177-17 177 60 0 33-19 50-47 57zm-97-11c50-1 110 9 110-42 0-47-63-36-110-37v79zm0 115c55-2 124 14 124-45 0-56-70-42-124-44v89" id="az"/><g id="z"><use transform="matrix(0.05,0,0,0.05,0,0)" xlink:href="#H"/><use transform="matrix(0.05,0,0,0.05,12.950000000000001,0)" xlink:href="#J"/><use transform="matrix(0.05,0,0,0.05,16.900000000000002,0)" xlink:href="#N"/><use transform="matrix(0.05,0,0,0.05,26.900000000000002,0)" xlink:href="#I"/><use transform="matrix(0.05,0,0,0.05,36.900000000000006,0)" xlink:href="#R"/><use transform="matrix(0.05,0,0,0.05,42.85000000000001,0)" xlink:href="#H"/><use transform="matrix(0.05,0,0,0.05,55.80000000000001,0)" xlink:href="#I"/><use transform="matrix(0.05,0,0,0.05,65.80000000000001,0)" xlink:href="#J"/><use transform="matrix(0.05,0,0,0.05,69.75000000000001,0)" xlink:href="#az"/><use transform="matrix(0.05,0,0,0.05,81.75000000000001,0)" xlink:href="#ak"/><use transform="matrix(0.05,0,0,0.05,91.75000000000001,0)" xlink:href="#P"/><use transform="matrix(0.05,0,0,0.05,96.75000000000001,0)" xlink:href="#P"/><use transform="matrix(0.05,0,0,0.05,101.75000000000001,0)" xlink:href="#L"/><use transform="matrix(0.05,0,0,0.05,111.75,0)" xlink:href="#O"/></g><g id="A"><use transform="matrix(0.05,0,0,0.05,0,0)" xlink:href="#S"/><use transform="matrix(0.05,0,0,0.05,5.95,0)" xlink:href="#O"/><use transform="matrix(0.05,0,0,0.05,15.949999999999998,0)" xlink:href="#L"/><use transform="matrix(0.05,0,0,0.05,25.950000000000003,0)" xlink:href="#P"/><use transform="matrix(0.05,0,0,0.05,30.950000000000003,0)" xlink:href="#al"/><use transform="matrix(0.05,0,0,0.05,34.9,0)" xlink:href="#aj"/><use transform="matrix(0.05,0,0,0.05,39.9,0)" xlink:href="#ay"/><use transform="matrix(0.05,0,0,0.05,48.9,0)" xlink:href="#H"/><use transform="matrix(0.05,0,0,0.05,61.85,0)" xlink:href="#J"/><use transform="matrix(0.05,0,0,0.05,65.8,0)" xlink:href="#N"/><use transform="matrix(0.05,0,0,0.05,75.8,0)" xlink:href="#I"/><use transform="matrix(0.05,0,0,0.05,85.8,0)" xlink:href="#R"/><use transform="matrix(0.05,0,0,0.05,91.75,0)" xlink:href="#W"/><use transform="matrix(0.05,0,0,0.05,103.75,0)" xlink:href="#T"/><use transform="matrix(0.05,0,0,0.05,112.75,0)" xlink:href="#N"/><use transform="matrix(0.05,0,0,0.05,122.75,0)" xlink:href="#O"/><use transform="matrix(0.05,0,0,0.05,132.75,0)" xlink:href="#P"/><use transform="matrix(0.05,0,0,0.05,137.75,0)" xlink:href="#U"/><use transform="matrix(0.05,0,0,0.05,146.75,0)" xlink:href="#V"/></g><g id="B"><use transform="matrix(0.05,0,0,0.05,0,0)" xlink:href="#O"/><use transform="matrix(0.05,0,0,0.05,10,0)" xlink:href="#L"/><use transform="matrix(0.05,0,0,0.05,20,0)" xlink:href="#P"/><use transform="matrix(0.05,0,0,0.05,25,0)" xlink:href="#al"/><use transform="matrix(0.05,0,0,0.05,28.950000000000003,0)" xlink:href="#aj"/><use transform="matrix(0.05,0,0,0.05,33.95,0)" xlink:href="#ay"/><use transform="matrix(0.05,0,0,0.05,42.95,0)" xlink:href="#H"/><use transform="matrix(0.05,0,0,0.05,55.900000000000006,0)" xlink:href="#J"/><use transform="matrix(0.05,0,0,0.05,59.85,0)" xlink:href="#N"/><use transform="matrix(0.05,0,0,0.05,69.85000000000001,0)" xlink:href="#I"/><use transform="matrix(0.05,0,0,0.05,79.85000000000001,0)" xlink:href="#R"/><use transform="matrix(0.05,0,0,0.05,85.80000000000001,0)" xlink:href="#W"/><use transform="matrix(0.05,0,0,0.05,97.80000000000001,0)" xlink:href="#T"/><use transform="matrix(0.05,0,0,0.05,106.80000000000001,0)" xlink:href="#N"/><use transform="matrix(0.05,0,0,0.05,116.80000000000001,0)" xlink:href="#O"/><use transform="matrix(0.05,0,0,0.05,126.80000000000001,0)" xlink:href="#P"/><use transform="matrix(0.05,0,0,0.05,131.8,0)" xlink:href="#U"/><use transform="matrix(0.05,0,0,0.05,140.8,0)" xlink:href="#ab"/><use transform="matrix(0.05,0,0,0.05,146.75,0)" xlink:href="#ac"/></g><g id="C"><use transform="matrix(0.05,0,0,0.05,0,0)" xlink:href="#af"/><use transform="matrix(0.05,0,0,0.05,9,0)" xlink:href="#R"/><use transform="matrix(0.05,0,0,0.05,14.949999999999998,0)" xlink:href="#N"/><use transform="matrix(0.05,0,0,0.05,24.95,0)" xlink:href="#I"/><use transform="matrix(0.05,0,0,0.05,34.95,0)" xlink:href="#P"/><use transform="matrix(0.05,0,0,0.05,39.95,0)" xlink:href="#N"/><use transform="matrix(0.05,0,0,0.05,49.95,0)" xlink:href="#H"/><use transform="matrix(0.05,0,0,0.05,62.900000000000006,0)" xlink:href="#L"/><use transform="matrix(0.05,0,0,0.05,72.9,0)" xlink:href="#O"/><use transform="matrix(0.05,0,0,0.05,82.9,0)" xlink:href="#P"/><use transform="matrix(0.05,0,0,0.05,87.9,0)" xlink:href="#N"/><use transform="matrix(0.05,0,0,0.05,97.9,0)" xlink:href="#Q"/><use transform="matrix(0.05,0,0,0.05,106.9,0)" xlink:href="#P"/><use transform="matrix(0.05,0,0,0.05,111.9,0)" xlink:href="#ab"/><use transform="matrix(0.05,0,0,0.05,117.85000000000001,0)" xlink:href="#O"/><use transform="matrix(0.05,0,0,0.05,127.85000000000001,0)" xlink:href="#L"/><use transform="matrix(0.05,0,0,0.05,137.85000000000002,0)" xlink:href="#P"/><use transform="matrix(0.05,0,0,0.05,142.85000000000002,0)" xlink:href="#al"/><use transform="matrix(0.05,0,0,0.05,146.8,0)" xlink:href="#aj"/><use transform="matrix(0.05,0,0,0.05,151.8,0)" xlink:href="#ay"/><use transform="matrix(0.05,0,0,0.05,160.8,0)" xlink:href="#H"/><use transform="matrix(0.05,0,0,0.05,173.75,0)" xlink:href="#J"/><use transform="matrix(0.05,0,0,0.05,177.7,0)" xlink:href="#N"/><use transform="matrix(0.05,0,0,0.05,187.7,0)" xlink:href="#I"/><use transform="matrix(0.05,0,0,0.05,197.7,0)" xlink:href="#R"/><use transform="matrix(0.05,0,0,0.05,203.64999999999998,0)" xlink:href="#W"/><use transform="matrix(0.05,0,0,0.05,215.64999999999998,0)" xlink:href="#T"/><use transform="matrix(0.05,0,0,0.05,224.64999999999998,0)" xlink:href="#N"/><use transform="matrix(0.05,0,0,0.05,234.64999999999998,0)" xlink:href="#O"/><use transform="matrix(0.05,0,0,0.05,244.64999999999998,0)" xlink:href="#P"/><use transform="matrix(0.05,0,0,0.05,249.64999999999998,0)" xlink:href="#U"/><use transform="matrix(0.05,0,0,0.05,258.65,0)" xlink:href="#ac"/></g><g id="D"><use transform="matrix(0.05,0,0,0.05,0,0)" xlink:href="#ak"/><use transform="matrix(0.05,0,0,0.05,10,0)" xlink:href="#U"/><use transform="matrix(0.05,0,0,0.05,19,0)" xlink:href="#N"/><use transform="matrix(0.05,0,0,0.05,29,0)" xlink:href="#H"/><use transform="matrix(0.05,0,0,0.05,41.95,0)" xlink:href="#L"/><use transform="matrix(0.05,0,0,0.05,51.95,0)" xlink:href="#O"/><use transform="matrix(0.05,0,0,0.05,61.95,0)" xlink:href="#P"/><use transform="matrix(0.05,0,0,0.05,66.95,0)" xlink:href="#N"/><use transform="matrix(0.05,0,0,0.05,76.95,0)" xlink:href="#Q"/><use transform="matrix(0.05,0,0,0.05,85.95,0)" xlink:href="#P"/><use transform="matrix(0.05,0,0,0.05,90.95,0)" xlink:href="#ab"/><use transform="matrix(0.05,0,0,0.05,96.9,0)" xlink:href="#ac"/></g><g id="E"><use transform="matrix(0.05,0,0,0.05,0,0)" xlink:href="#af"/><use transform="matrix(0.05,0,0,0.05,9,0)" xlink:href="#R"/><use transform="matrix(0.05,0,0,0.05,14.949999999999998,0)" xlink:href="#N"/><use transform="matrix(0.05,0,0,0.05,24.95,0)" xlink:href="#I"/><use transform="matrix(0.05,0,0,0.05,34.95,0)" xlink:href="#P"/><use transform="matrix(0.05,0,0,0.05,39.95,0)" xlink:href="#N"/><use transform="matrix(0.05,0,0,0.05,49.95,0)" xlink:href="#H"/><use transform="matrix(0.05,0,0,0.05,62.900000000000006,0)" xlink:href="#L"/><use transform="matrix(0.05,0,0,0.05,72.9,0)" xlink:href="#O"/><use transform="matrix(0.05,0,0,0.05,82.9,0)" xlink:href="#P"/><use transform="matrix(0.05,0,0,0.05,87.9,0)" xlink:href="#N"/><use transform="matrix(0.05,0,0,0.05,97.9,0)" xlink:href="#Q"/><use transform="matrix(0.05,0,0,0.05,106.9,0)" xlink:href="#P"/><use transform="matrix(0.05,0,0,0.05,111.9,0)" xlink:href="#ab"/><use transform="matrix(0.05,0,0,0.05,117.85000000000001,0)" xlink:href="#N"/><use transform="matrix(0.05,0,0,0.05,127.85000000000001,0)" xlink:href="#T"/><use transform="matrix(0.05,0,0,0.05,136.85000000000002,0)" xlink:href="#N"/><use transform="matrix(0.05,0,0,0.05,146.85000000000002,0)" xlink:href="#O"/><use transform="matrix(0.05,0,0,0.05,156.85000000000002,0)" xlink:href="#P"/><use transform="matrix(0.05,0,0,0.05,161.85000000000002,0)" xlink:href="#U"/><use transform="matrix(0.05,0,0,0.05,170.85000000000002,0)" xlink:href="#ac"/></g><g id="F"><use transform="matrix(0.05,0,0,0.05,0,0)" xlink:href="#aa"/><use transform="matrix(0.05,0,0,0.05,10,0)" xlink:href="#N"/><use transform="matrix(0.05,0,0,0.05,20,0)" xlink:href="#P"/><use transform="matrix(0.05,0,0,0.05,25,0)" xlink:href="#W"/><use transform="matrix(0.05,0,0,0.05,37,0)" xlink:href="#T"/><use transform="matrix(0.05,0,0,0.05,46,0)" xlink:href="#N"/><use transform="matrix(0.05,0,0,0.05,56,0)" xlink:href="#O"/><use transform="matrix(0.05,0,0,0.05,66,0)" xlink:href="#P"/><use transform="matrix(0.05,0,0,0.05,71,0)" xlink:href="#U"/><use transform="matrix(0.05,0,0,0.05,80,0)" xlink:href="#ab"/><use transform="matrix(0.05,0,0,0.05,85.95,0)" xlink:href="#ac"/></g><g id="G"><use transform="matrix(0.05,0,0,0.05,0,0)" xlink:href="#U"/><use transform="matrix(0.05,0,0,0.05,9,0)" xlink:href="#N"/><use transform="matrix(0.05,0,0,0.05,19,0)" xlink:href="#P"/><use transform="matrix(0.05,0,0,0.05,24,0)" xlink:href="#W"/><use transform="matrix(0.05,0,0,0.05,36,0)" xlink:href="#T"/><use transform="matrix(0.05,0,0,0.05,45,0)" xlink:href="#N"/><use transform="matrix(0.05,0,0,0.05,55,0)" xlink:href="#O"/><use transform="matrix(0.05,0,0,0.05,65,0)" xlink:href="#P"/><use transform="matrix(0.05,0,0,0.05,70,0)" xlink:href="#U"/><use transform="matrix(0.05,0,0,0.05,79,0)" xlink:href="#ab"/><use transform="matrix(0.05,0,0,0.05,84.95,0)" xlink:href="#N"/><use transform="matrix(0.05,0,0,0.05,94.95,0)" xlink:href="#T"/><use transform="matrix(0.05,0,0,0.05,103.95,0)" xlink:href="#N"/><use transform="matrix(0.05,0,0,0.05,113.95,0)" xlink:href="#O"/><use transform="matrix(0.05,0,0,0.05,123.95,0)" xlink:href="#P"/><use transform="matrix(0.05,0,0,0.05,128.95,0)" xlink:href="#U"/><use transform="matrix(0.05,0,0,0.05,137.95,0)" xlink:href="#ac"/></g></defs></g></svg>