<svg xmlns="http://www.w3.org/2000/svg" xmlns:xlink="http://www.w3.org/1999/xlink" xmlns:lucid="lucid" width="1228" height="625"><g transform="translate(-216 -396)" lucid:page-tab-id="HWEp-vi-RSFO"><path d="M0 0h1760v1360H0z" fill="#fff"/><path d="M680 420h380v221H680z" stroke="#333" stroke-width="2" fill="#fff"/><path d="M680 457.6h380m-380 59.1h380" stroke="#333" stroke-width="2" fill="none"/><use xlink:href="#a" transform="matrix(1,0,0,1,688,428) translate(144.1 14.6)"/><use xlink:href="#b" transform="matrix(1,0,0,1,692,465.6) translate(99.57499999999999 25.6)"/><use xlink:href="#c" transform="matrix(1,0,0,1,692,465.6) translate(110.52499999999999 25.6)"/><use xlink:href="#d" transform="matrix(1,0,0,1,692,465.6) translate(173.52499999999998 25.6)"/><use xlink:href="#e" transform="matrix(1,0,0,1,692,524.7) translate(80.35 25.19999999999999)"/><use xlink:href="#f" transform="matrix(1,0,0,1,692,524.7) translate(192.75 25.19999999999999)"/><use xlink:href="#g" transform="matrix(1,0,0,1,692,524.7) translate(54.349999999999994 46.79999999999999)"/><use xlink:href="#h" transform="matrix(1,0,0,1,692,524.7) translate(212.79999999999998 46.79999999999999)"/><use xlink:href="#i" transform="matrix(1,0,0,1,692,524.7) translate(97.65 68.39999999999999)"/><use xlink:href="#j" transform="matrix(1,0,0,1,692,524.7) translate(88.22500000000001 90)"/><path d="M1000 824.5h420v156h-420z" stroke="#333" stroke-width="2" fill="#fff"/><path d="M1000 862.1h420m-420 59.1h420" stroke="#333" stroke-width="2" fill="none"/><use xlink:href="#k" transform="matrix(1,0,0,1,1008,832.5126382998183) translate(149.675 14.6)"/><use xlink:href="#l" transform="matrix(1,0,0,1,1012,929.2126382998183) translate(94.92500000000001 25.6)"/><use xlink:href="#m" transform="matrix(1,0,0,1,1012,929.2126382998183) translate(268.125 25.6)"/><path d="M240 711.5h420v113H240z" stroke="#333" stroke-width="2" fill="#fff"/><path d="M240 749.1h420m-420 37.6h420" stroke="#333" stroke-width="2" fill="none"/><use xlink:href="#n" transform="matrix(1,0,0,1,248,719.5126382998183) translate(142.575 14.6)"/><path d="M240 860h480v113H240z" stroke="#333" stroke-width="2" fill="#fff"/><path d="M240 897.6h480m-480 37.6h480" stroke="#333" stroke-width="2" fill="none"/><use xlink:href="#o" transform="matrix(1,0,0,1,248,868) translate(171.125 14.6)"/><path d="M726.62 917h-5.12v-1h5.12zm15.37 0h-10.26v-1H742zm15.35 0H747.1v-1h10.25zm15.37 0h-10.24v-1h10.24zm10.93 0h-5.8v-1h5.8zm173.46 0h-10.23v-1h10.24zm15.38 0h-10.24v-1h10.24zm15.37 0H977.6v-1h10.25zm10.24 0h-5.13v-1h5.12zm-56.35 0h-5.4v-1h5.4z" stroke="#333" stroke-width=".05" fill="#333"/><path d="M721.5 917h-.5v-1h.5z" fill="#333"/><path d="M721.54 917.02h-.56V916h.56zm-.5-1v.96h.45V916zM999 916.5l-17.94 10.6-.5-.85 16.48-9.75-16.5-9.75.52-.86z" stroke="#333" stroke-width=".05" fill="#333"/><use xlink:href="#p" transform="matrix(1,0,0,1,783.65,905.7) translate(0.0049999999999954525 14.4)"/><path d="M1130.92 823h-1v-5.04h1zm0-10.1h-1v-10.1h1zm0-15.16h-1v-10.1h1zm0-15.16h-1v-10.1h1zm0-15.17h-1v-10.1h1zm0-15.15h-1v-10.1h1zm0-15.16h-1v-6.33h1zm0-30.34h-1v-10.1h1zm0-15.16h-1v-10.1h1zm0-33.57h-1v-6.87h1zm0-11.92h-1V636h1zm0-15.15h-1v-10.1h1zm0-15.17h-1v-10.1h1zm-1.36-25.9l.75 1.82.47 1.9.15 1.94v5.08h-1v-5.03l-.14-1.83-.42-1.76-.7-1.65-.3-.5.85-.53zm-9.18-6.66l1.9.45 1.82.76.57.35-.53.85-.5-.3-1.67-.7-1.75-.42-1.82-.13h-4.7v-1h4.74zm-11.38.85h-9.42v-1h9.42zm-14.13 0h-9.4v-1h9.4zm-14.12 0h-9.42v-1h9.42zm-14.13 0h-4.7v-1h4.7z" stroke="#333" stroke-width=".05" fill="#333"/><path d="M1130.92 823.5h-1v-.5h1z" fill="#333"/><path d="M1130.95 823.54h-1.05v-.56h1.05zm-1-.5v.45h.95V823zM1079.45 573.8l-16.5 9.77 16.5 9.75-.5.86-17.95-10.6 17.94-10.63z" stroke="#333" stroke-width=".05" fill="#333"/><g><use xlink:href="#q" transform="matrix(1,0,0,1,1084.471052631579,658.0282787098259) translate(0.005000000000002558 14.4)"/></g><g><use xlink:href="#r" transform="matrix(1,0,0,1,1058.471052631579,709.1688220844765) translate(0.0049999999999954525 14.4)"/></g><path d="M412.5 710h-1v-5.1h1zm0-10.2h-1v-10.23h1zm0-15.34h-1v-10.23h1zm0-15.34h-1V658.9h1zm0-15.33h-1v-10.24h1zm0-15.35h-1v-10.22h1zm0-15.33h-1V612.9h1zm0-15.34h-1v-10.22h1zm0-15.33h-1v-10.23h1zm0-15.34h-1v-10.2h1zm0-15.32h-1v-10.22h1zm0-20.43v5.1h-1v-5.14l.1-1.17h1zm106.16-11.52h-9.96v-1h9.96zm14.95 0h-9.96v-1h9.97zm14.95 0h-9.96v-1h9.95zm14.95 0h-9.96v-1h9.96zm14.95 0h-9.97v-1h9.97zm14.94 0h-9.97v-1h9.96zm14.94 0h-9.96v-1h9.96zm14.95 0h-9.98v-1h9.97zm14.93 0h-9.96v-1h9.96zm14.95 0h-9.96v-1h9.96zm14.95 0h-9.97v-1h9.97zm9.96 0h-5v-1h5zm-174.4 0h-2.84v-1h2.85z" stroke="#333" stroke-width=".05" fill="#333"/><path d="M412.5 710.5h-1v-.5h1z" fill="#333"/><path d="M412.52 710.54h-1.04v-.56h1.04zm-1-.5v.45h.96V710zM679 529.33l-17.94 10.62-.5-.87 16.48-9.75-16.5-9.75.52-.86z" stroke="#333" stroke-width=".05" fill="#333"/><g><use xlink:href="#q" transform="matrix(1,0,0,1,408.9603475167575,518.5333333333333) translate(0.005000000000002558 14.4)"/></g><defs><path fill="#333" d="M212-179c-10-28-35-45-73-45-59 0-87 40-87 99 0 60 29 101 89 101 43 0 62-24 78-52l27 14C228-24 195 4 139 4 59 4 22-46 18-125c-6-104 99-153 187-111 19 9 31 26 39 46" id="s"/><path fill="#333" d="M141-36C126-15 110 5 73 4 37 3 15-17 15-53c-1-64 63-63 125-63 3-35-9-54-41-54-24 1-41 7-42 31l-33-3c5-37 33-52 76-52 45 0 72 20 72 64v82c-1 20 7 32 28 27v20c-31 9-61-2-59-35zM48-53c0 20 12 33 32 33 41-3 63-29 60-74-43 2-92-5-92 41" id="t"/><path fill="#333" d="M24 0v-261h32V0H24" id="u"/><path fill="#333" d="M240 0l2-218c-23 76-54 145-80 218h-23L58-218 59 0H30v-248h44l77 211c21-75 51-140 76-211h43V0h-30" id="v"/><path fill="#333" d="M100-194c62-1 85 37 85 99 1 63-27 99-86 99S16-35 15-95c0-66 28-99 85-99zM99-20c44 1 53-31 53-75 0-43-8-75-51-75s-53 32-53 75 10 74 51 75" id="w"/><path fill="#333" d="M85-194c31 0 48 13 60 33l-1-100h32l1 261h-30c-2-10 0-23-3-31C134-8 116 4 85 4 32 4 16-35 15-94c0-66 23-100 70-100zm9 24c-40 0-46 34-46 75 0 40 6 74 45 74 42 0 51-32 51-76 0-42-9-74-50-73" id="x"/><path fill="#333" d="M100-194c63 0 86 42 84 106H49c0 40 14 67 53 68 26 1 43-12 49-29l28 8c-11 28-37 45-77 45C44 4 14-33 15-96c1-61 26-98 85-98zm52 81c6-60-76-77-97-28-3 7-6 17-6 28h103" id="y"/><g id="a"><use transform="matrix(0.05,0,0,0.05,0,0)" xlink:href="#s"/><use transform="matrix(0.05,0,0,0.05,12.950000000000001,0)" xlink:href="#t"/><use transform="matrix(0.05,0,0,0.05,22.950000000000003,0)" xlink:href="#u"/><use transform="matrix(0.05,0,0,0.05,26.900000000000002,0)" xlink:href="#v"/><use transform="matrix(0.05,0,0,0.05,41.85,0)" xlink:href="#w"/><use transform="matrix(0.05,0,0,0.05,51.85,0)" xlink:href="#x"/><use transform="matrix(0.05,0,0,0.05,61.85,0)" xlink:href="#y"/><use transform="matrix(0.05,0,0,0.05,71.85,0)" xlink:href="#u"/></g><path fill="#333" d="M16-82v-28h88v28H16" id="z"/><use transform="matrix(0.05,0,0,0.05,0,0)" xlink:href="#z" id="b"/><path fill="#333" d="M108 0H70L1-190h34L89-25l56-165h34" id="A"/><path fill="#333" d="M117-194c89-4 53 116 60 194h-32v-121c0-31-8-49-39-48C34-167 62-67 57 0H25l-1-190h30c1 10-1 24 2 32 11-22 29-35 61-36" id="B"/><path fill="#333" d="M59-47c-2 24 18 29 38 22v24C64 9 27 4 27-40v-127H5v-23h24l9-43h21v43h35v23H59v120" id="C"/><path fill="#333" d="M135-143c-3-34-86-38-87 0 15 53 115 12 119 90S17 21 10-45l28-5c4 36 97 45 98 0-10-56-113-15-118-90-4-57 82-63 122-42 12 7 21 19 24 35" id="D"/><path fill="#333" d="M33-154v-36h34v36H33zM33 0v-36h34V0H33" id="E"/><g id="c"><use transform="matrix(0.05,0,0,0.05,0,0)" xlink:href="#y"/><use transform="matrix(0.05,0,0,0.05,10,0)" xlink:href="#A"/><use transform="matrix(0.05,0,0,0.05,19,0)" xlink:href="#y"/><use transform="matrix(0.05,0,0,0.05,29,0)" xlink:href="#B"/><use transform="matrix(0.05,0,0,0.05,39,0)" xlink:href="#C"/><use transform="matrix(0.05,0,0,0.05,44,0)" xlink:href="#D"/><use transform="matrix(0.05,0,0,0.05,53,0)" xlink:href="#E"/></g><path fill="#333" d="M30 0v-248h187v28H63v79h144v27H63v87h162V0H30" id="F"/><path fill="#333" d="M26 75v-336h71v23H56V52h41v23H26" id="G"/><path fill="#333" d="M3 75V52h41v-290H3v-23h71V75H3" id="H"/><g id="d"><use transform="matrix(0.05,0,0,0.05,0,0)" xlink:href="#s"/><use transform="matrix(0.05,0,0,0.05,12.950000000000001,0)" xlink:href="#t"/><use transform="matrix(0.05,0,0,0.05,22.950000000000003,0)" xlink:href="#u"/><use transform="matrix(0.05,0,0,0.05,26.900000000000002,0)" xlink:href="#F"/><use transform="matrix(0.05,0,0,0.05,38.900000000000006,0)" xlink:href="#A"/><use transform="matrix(0.05,0,0,0.05,47.900000000000006,0)" xlink:href="#y"/><use transform="matrix(0.05,0,0,0.05,57.900000000000006,0)" xlink:href="#B"/><use transform="matrix(0.05,0,0,0.05,67.9,0)" xlink:href="#C"/><use transform="matrix(0.05,0,0,0.05,72.9,0)" xlink:href="#G"/><use transform="matrix(0.05,0,0,0.05,77.9,0)" xlink:href="#H"/></g><path fill="#333" d="M118-107v75H92v-75H18v-26h74v-75h26v75h74v26h-74" id="I"/><path fill="#333" d="M177-190C167-65 218 103 67 71c-23-6-38-20-44-43l32-5c15 47 100 32 89-28v-30C133-14 115 1 83 1 29 1 15-40 15-95c0-56 16-97 71-98 29-1 48 16 59 35 1-10 0-23 2-32h30zM94-22c36 0 50-32 50-73 0-42-14-75-50-75-39 0-46 34-46 75s6 73 46 73" id="J"/><path fill="#333" d="M87 75C49 33 22-17 22-94c0-76 28-126 65-167h31c-38 41-64 92-64 168S80 34 118 75H87" id="K"/><path fill="#333" d="M33-261c38 41 65 92 65 168S71 34 33 75H2C39 34 66-17 66-93S39-220 2-261h31" id="L"/><g id="e"><use transform="matrix(0.05,0,0,0.05,0,0)" xlink:href="#I"/><use transform="matrix(0.05,0,0,0.05,10.5,0)" xlink:href="#J"/><use transform="matrix(0.05,0,0,0.05,20.5,0)" xlink:href="#y"/><use transform="matrix(0.05,0,0,0.05,30.5,0)" xlink:href="#C"/><use transform="matrix(0.05,0,0,0.05,35.5,0)" xlink:href="#F"/><use transform="matrix(0.05,0,0,0.05,47.5,0)" xlink:href="#A"/><use transform="matrix(0.05,0,0,0.05,56.5,0)" xlink:href="#y"/><use transform="matrix(0.05,0,0,0.05,66.5,0)" xlink:href="#B"/><use transform="matrix(0.05,0,0,0.05,76.5,0)" xlink:href="#C"/><use transform="matrix(0.05,0,0,0.05,81.5,0)" xlink:href="#D"/><use transform="matrix(0.05,0,0,0.05,90.5,0)" xlink:href="#K"/><use transform="matrix(0.05,0,0,0.05,96.45,0)" xlink:href="#L"/><use transform="matrix(0.05,0,0,0.05,102.4,0)" xlink:href="#E"/></g><g id="f"><use transform="matrix(0.05,0,0,0.05,0,0)" xlink:href="#s"/><use transform="matrix(0.05,0,0,0.05,12.950000000000001,0)" xlink:href="#t"/><use transform="matrix(0.05,0,0,0.05,22.950000000000003,0)" xlink:href="#u"/><use transform="matrix(0.05,0,0,0.05,26.900000000000002,0)" xlink:href="#F"/><use transform="matrix(0.05,0,0,0.05,38.900000000000006,0)" xlink:href="#A"/><use transform="matrix(0.05,0,0,0.05,47.900000000000006,0)" xlink:href="#y"/><use transform="matrix(0.05,0,0,0.05,57.900000000000006,0)" xlink:href="#B"/><use transform="matrix(0.05,0,0,0.05,67.9,0)" xlink:href="#C"/><use transform="matrix(0.05,0,0,0.05,72.9,0)" xlink:href="#G"/><use transform="matrix(0.05,0,0,0.05,77.9,0)" xlink:href="#H"/></g><g id="g"><use transform="matrix(0.05,0,0,0.05,0,0)" xlink:href="#I"/><use transform="matrix(0.05,0,0,0.05,10.5,0)" xlink:href="#D"/><use transform="matrix(0.05,0,0,0.05,19.5,0)" xlink:href="#y"/><use transform="matrix(0.05,0,0,0.05,29.5,0)" xlink:href="#C"/><use transform="matrix(0.05,0,0,0.05,34.5,0)" xlink:href="#F"/><use transform="matrix(0.05,0,0,0.05,46.5,0)" xlink:href="#A"/><use transform="matrix(0.05,0,0,0.05,55.5,0)" xlink:href="#y"/><use transform="matrix(0.05,0,0,0.05,65.5,0)" xlink:href="#B"/><use transform="matrix(0.05,0,0,0.05,75.5,0)" xlink:href="#C"/><use transform="matrix(0.05,0,0,0.05,80.5,0)" xlink:href="#D"/><use transform="matrix(0.05,0,0,0.05,89.5,0)" xlink:href="#K"/><use transform="matrix(0.05,0,0,0.05,95.45,0)" xlink:href="#y"/><use transform="matrix(0.05,0,0,0.05,105.45,0)" xlink:href="#A"/><use transform="matrix(0.05,0,0,0.05,114.45,0)" xlink:href="#y"/><use transform="matrix(0.05,0,0,0.05,124.45,0)" xlink:href="#B"/><use transform="matrix(0.05,0,0,0.05,134.45,0)" xlink:href="#C"/><use transform="matrix(0.05,0,0,0.05,139.45,0)" xlink:href="#D"/><use transform="matrix(0.05,0,0,0.05,148.45,0)" xlink:href="#E"/></g><g id="h"><use transform="matrix(0.05,0,0,0.05,0,0)" xlink:href="#s"/><use transform="matrix(0.05,0,0,0.05,12.950000000000001,0)" xlink:href="#t"/><use transform="matrix(0.05,0,0,0.05,22.950000000000003,0)" xlink:href="#u"/><use transform="matrix(0.05,0,0,0.05,26.900000000000002,0)" xlink:href="#F"/><use transform="matrix(0.05,0,0,0.05,38.900000000000006,0)" xlink:href="#A"/><use transform="matrix(0.05,0,0,0.05,47.900000000000006,0)" xlink:href="#y"/><use transform="matrix(0.05,0,0,0.05,57.900000000000006,0)" xlink:href="#B"/><use transform="matrix(0.05,0,0,0.05,67.9,0)" xlink:href="#C"/><use transform="matrix(0.05,0,0,0.05,72.9,0)" xlink:href="#G"/><use transform="matrix(0.05,0,0,0.05,77.9,0)" xlink:href="#H"/><use transform="matrix(0.05,0,0,0.05,82.9,0)" xlink:href="#L"/></g><path fill="#333" d="M127-220V0H93v-220H8v-28h204v28h-85" id="M"/><path fill="#333" d="M30 0v-248h33v221h125V0H30" id="N"/><path fill="#333" d="M96-169c-40 0-48 33-48 73s9 75 48 75c24 0 41-14 43-38l32 2c-6 37-31 61-74 61-59 0-76-41-82-99-10-93 101-131 147-64 4 7 5 14 7 22l-32 3c-4-21-16-35-41-35" id="O"/><path fill="#333" d="M185-189c-5-48-123-54-124 2 14 75 158 14 163 119 3 78-121 87-175 55-17-10-28-26-33-46l33-7c5 56 141 63 141-1 0-78-155-14-162-118-5-82 145-84 179-34 5 7 8 16 11 25" id="P"/><path fill="#333" d="M114-163C36-179 61-72 57 0H25l-1-190h30c1 12-1 29 2 39 6-27 23-49 58-41v29" id="Q"/><g id="i"><use transform="matrix(0.05,0,0,0.05,0,0)" xlink:href="#z"/><use transform="matrix(0.05,0,0,0.05,5.95,0)" xlink:href="#D"/><use transform="matrix(0.05,0,0,0.05,14.949999999999998,0)" xlink:href="#t"/><use transform="matrix(0.05,0,0,0.05,24.95,0)" xlink:href="#A"/><use transform="matrix(0.05,0,0,0.05,33.95,0)" xlink:href="#y"/><use transform="matrix(0.05,0,0,0.05,43.95,0)" xlink:href="#M"/><use transform="matrix(0.05,0,0,0.05,52.900000000000006,0)" xlink:href="#w"/><use transform="matrix(0.05,0,0,0.05,62.900000000000006,0)" xlink:href="#N"/><use transform="matrix(0.05,0,0,0.05,72.9,0)" xlink:href="#w"/><use transform="matrix(0.05,0,0,0.05,82.9,0)" xlink:href="#O"/><use transform="matrix(0.05,0,0,0.05,91.9,0)" xlink:href="#t"/><use transform="matrix(0.05,0,0,0.05,101.9,0)" xlink:href="#u"/><use transform="matrix(0.05,0,0,0.05,105.85000000000001,0)" xlink:href="#P"/><use transform="matrix(0.05,0,0,0.05,117.85000000000001,0)" xlink:href="#C"/><use transform="matrix(0.05,0,0,0.05,122.85000000000001,0)" xlink:href="#w"/><use transform="matrix(0.05,0,0,0.05,132.85000000000002,0)" xlink:href="#Q"/><use transform="matrix(0.05,0,0,0.05,138.8,0)" xlink:href="#y"/><use transform="matrix(0.05,0,0,0.05,148.8,0)" xlink:href="#K"/><use transform="matrix(0.05,0,0,0.05,154.75,0)" xlink:href="#L"/></g><path fill="#333" d="M63-220v92h138v28H63V0H30v-248h175v28H63" id="R"/><path fill="#333" d="M210-169c-67 3-38 105-44 169h-31v-121c0-29-5-50-35-48C34-165 62-65 56 0H25l-1-190h30c1 10-1 24 2 32 10-44 99-50 107 0 11-21 27-35 58-36 85-2 47 119 55 194h-31v-121c0-29-5-49-35-48" id="S"/><g id="j"><use transform="matrix(0.05,0,0,0.05,0,0)" xlink:href="#z"/><use transform="matrix(0.05,0,0,0.05,5.95,0)" xlink:href="#u"/><use transform="matrix(0.05,0,0,0.05,9.9,0)" xlink:href="#w"/><use transform="matrix(0.05,0,0,0.05,19.9,0)" xlink:href="#t"/><use transform="matrix(0.05,0,0,0.05,29.899999999999995,0)" xlink:href="#x"/><use transform="matrix(0.05,0,0,0.05,39.9,0)" xlink:href="#R"/><use transform="matrix(0.05,0,0,0.05,50.85,0)" xlink:href="#Q"/><use transform="matrix(0.05,0,0,0.05,56.800000000000004,0)" xlink:href="#w"/><use transform="matrix(0.05,0,0,0.05,66.80000000000001,0)" xlink:href="#S"/><use transform="matrix(0.05,0,0,0.05,81.75000000000001,0)" xlink:href="#N"/><use transform="matrix(0.05,0,0,0.05,91.75000000000001,0)" xlink:href="#w"/><use transform="matrix(0.05,0,0,0.05,101.75000000000001,0)" xlink:href="#O"/><use transform="matrix(0.05,0,0,0.05,110.75,0)" xlink:href="#t"/><use transform="matrix(0.05,0,0,0.05,120.75,0)" xlink:href="#u"/><use transform="matrix(0.05,0,0,0.05,124.7,0)" xlink:href="#P"/><use transform="matrix(0.05,0,0,0.05,136.70000000000002,0)" xlink:href="#C"/><use transform="matrix(0.05,0,0,0.05,141.70000000000002,0)" xlink:href="#w"/><use transform="matrix(0.05,0,0,0.05,151.70000000000002,0)" xlink:href="#Q"/><use transform="matrix(0.05,0,0,0.05,157.65,0)" xlink:href="#y"/><use transform="matrix(0.05,0,0,0.05,167.65,0)" xlink:href="#K"/><use transform="matrix(0.05,0,0,0.05,173.6,0)" xlink:href="#L"/></g><g id="k"><use transform="matrix(0.05,0,0,0.05,0,0)" xlink:href="#s"/><use transform="matrix(0.05,0,0,0.05,12.950000000000001,0)" xlink:href="#t"/><use transform="matrix(0.05,0,0,0.05,22.950000000000003,0)" xlink:href="#u"/><use transform="matrix(0.05,0,0,0.05,26.900000000000002,0)" xlink:href="#s"/><use transform="matrix(0.05,0,0,0.05,39.85,0)" xlink:href="#w"/><use transform="matrix(0.05,0,0,0.05,49.85,0)" xlink:href="#B"/><use transform="matrix(0.05,0,0,0.05,59.85,0)" xlink:href="#C"/><use transform="matrix(0.05,0,0,0.05,64.85,0)" xlink:href="#Q"/><use transform="matrix(0.05,0,0,0.05,70.8,0)" xlink:href="#w"/><use transform="matrix(0.05,0,0,0.05,80.8,0)" xlink:href="#u"/><use transform="matrix(0.05,0,0,0.05,84.75,0)" xlink:href="#u"/><use transform="matrix(0.05,0,0,0.05,88.7,0)" xlink:href="#y"/><use transform="matrix(0.05,0,0,0.05,98.7,0)" xlink:href="#Q"/></g><path fill="#333" d="M24-231v-30h32v30H24zM24 0v-190h32V0H24" id="T"/><path fill="#333" d="M101-234c-31-9-42 10-38 44h38v23H63V0H32v-167H5v-23h27c-7-52 17-82 69-68v24" id="U"/><path fill="#333" d="M179-190L93 31C79 59 56 82 12 73V49c39 6 53-20 64-50L1-190h34L92-34l54-156h33" id="V"/><g id="l"><use transform="matrix(0.05,0,0,0.05,0,0)" xlink:href="#I"/><use transform="matrix(0.05,0,0,0.05,10.5,0)" xlink:href="#B"/><use transform="matrix(0.05,0,0,0.05,20.5,0)" xlink:href="#w"/><use transform="matrix(0.05,0,0,0.05,30.5,0)" xlink:href="#C"/><use transform="matrix(0.05,0,0,0.05,35.5,0)" xlink:href="#T"/><use transform="matrix(0.05,0,0,0.05,39.45,0)" xlink:href="#U"/><use transform="matrix(0.05,0,0,0.05,44.45,0)" xlink:href="#V"/><use transform="matrix(0.05,0,0,0.05,53.45,0)" xlink:href="#s"/><use transform="matrix(0.05,0,0,0.05,66.4,0)" xlink:href="#u"/><use transform="matrix(0.05,0,0,0.05,70.35000000000001,0)" xlink:href="#y"/><use transform="matrix(0.05,0,0,0.05,80.35000000000001,0)" xlink:href="#t"/><use transform="matrix(0.05,0,0,0.05,90.35000000000001,0)" xlink:href="#Q"/><use transform="matrix(0.05,0,0,0.05,96.30000000000001,0)" xlink:href="#F"/><use transform="matrix(0.05,0,0,0.05,108.30000000000001,0)" xlink:href="#A"/><use transform="matrix(0.05,0,0,0.05,117.30000000000001,0)" xlink:href="#y"/><use transform="matrix(0.05,0,0,0.05,127.30000000000001,0)" xlink:href="#B"/><use transform="matrix(0.05,0,0,0.05,137.3,0)" xlink:href="#C"/><use transform="matrix(0.05,0,0,0.05,142.3,0)" xlink:href="#D"/><use transform="matrix(0.05,0,0,0.05,151.3,0)" xlink:href="#K"/><use transform="matrix(0.05,0,0,0.05,157.25,0)" xlink:href="#L"/><use transform="matrix(0.05,0,0,0.05,163.2,0)" xlink:href="#E"/></g><g id="m"><use transform="matrix(0.05,0,0,0.05,0,0)" xlink:href="#A"/><use transform="matrix(0.05,0,0,0.05,9,0)" xlink:href="#w"/><use transform="matrix(0.05,0,0,0.05,19,0)" xlink:href="#T"/><use transform="matrix(0.05,0,0,0.05,22.95,0)" xlink:href="#x"/></g><g id="n"><use transform="matrix(0.05,0,0,0.05,0,0)" xlink:href="#F"/><use transform="matrix(0.05,0,0,0.05,12,0)" xlink:href="#A"/><use transform="matrix(0.05,0,0,0.05,21,0)" xlink:href="#y"/><use transform="matrix(0.05,0,0,0.05,31,0)" xlink:href="#B"/><use transform="matrix(0.05,0,0,0.05,41,0)" xlink:href="#C"/><use transform="matrix(0.05,0,0,0.05,46,0)" xlink:href="#s"/><use transform="matrix(0.05,0,0,0.05,58.95,0)" xlink:href="#t"/><use transform="matrix(0.05,0,0,0.05,68.95,0)" xlink:href="#u"/><use transform="matrix(0.05,0,0,0.05,72.9,0)" xlink:href="#y"/><use transform="matrix(0.05,0,0,0.05,82.9,0)" xlink:href="#B"/><use transform="matrix(0.05,0,0,0.05,92.9,0)" xlink:href="#x"/><use transform="matrix(0.05,0,0,0.05,102.9,0)" xlink:href="#t"/><use transform="matrix(0.05,0,0,0.05,112.9,0)" xlink:href="#Q"/></g><path fill="#333" d="M160-131c35 5 61 23 61 61C221 17 115-2 30 0v-248c76 3 177-17 177 60 0 33-19 50-47 57zm-97-11c50-1 110 9 110-42 0-47-63-36-110-37v79zm0 115c55-2 124 14 124-45 0-56-70-42-124-44v89" id="W"/><path fill="#333" d="M84 4C-5 8 30-112 23-190h32v120c0 31 7 50 39 49 72-2 45-101 50-169h31l1 190h-30c-1-10 1-25-2-33-11 22-28 36-60 37" id="X"/><g id="o"><use transform="matrix(0.05,0,0,0.05,0,0)" xlink:href="#s"/><use transform="matrix(0.05,0,0,0.05,12.950000000000001,0)" xlink:href="#u"/><use transform="matrix(0.05,0,0,0.05,16.900000000000002,0)" xlink:href="#y"/><use transform="matrix(0.05,0,0,0.05,26.900000000000002,0)" xlink:href="#t"/><use transform="matrix(0.05,0,0,0.05,36.900000000000006,0)" xlink:href="#Q"/><use transform="matrix(0.05,0,0,0.05,42.85000000000001,0)" xlink:href="#s"/><use transform="matrix(0.05,0,0,0.05,55.80000000000001,0)" xlink:href="#t"/><use transform="matrix(0.05,0,0,0.05,65.80000000000001,0)" xlink:href="#u"/><use transform="matrix(0.05,0,0,0.05,69.75000000000001,0)" xlink:href="#W"/><use transform="matrix(0.05,0,0,0.05,81.75000000000001,0)" xlink:href="#X"/><use transform="matrix(0.05,0,0,0.05,91.75000000000001,0)" xlink:href="#C"/><use transform="matrix(0.05,0,0,0.05,96.75000000000001,0)" xlink:href="#C"/><use transform="matrix(0.05,0,0,0.05,101.75000000000001,0)" xlink:href="#w"/><use transform="matrix(0.05,0,0,0.05,111.75,0)" xlink:href="#B"/></g><g id="p"><use transform="matrix(0.05,0,0,0.05,0,0)" xlink:href="#B"/><use transform="matrix(0.05,0,0,0.05,10,0)" xlink:href="#w"/><use transform="matrix(0.05,0,0,0.05,20,0)" xlink:href="#C"/><use transform="matrix(0.05,0,0,0.05,25,0)" xlink:href="#T"/><use transform="matrix(0.05,0,0,0.05,28.950000000000003,0)" xlink:href="#U"/><use transform="matrix(0.05,0,0,0.05,33.95,0)" xlink:href="#V"/><use transform="matrix(0.05,0,0,0.05,42.95,0)" xlink:href="#s"/><use transform="matrix(0.05,0,0,0.05,55.900000000000006,0)" xlink:href="#u"/><use transform="matrix(0.05,0,0,0.05,59.85,0)" xlink:href="#y"/><use transform="matrix(0.05,0,0,0.05,69.85000000000001,0)" xlink:href="#t"/><use transform="matrix(0.05,0,0,0.05,79.85000000000001,0)" xlink:href="#Q"/><use transform="matrix(0.05,0,0,0.05,85.80000000000001,0)" xlink:href="#F"/><use transform="matrix(0.05,0,0,0.05,97.80000000000001,0)" xlink:href="#A"/><use transform="matrix(0.05,0,0,0.05,106.80000000000001,0)" xlink:href="#y"/><use transform="matrix(0.05,0,0,0.05,116.80000000000001,0)" xlink:href="#B"/><use transform="matrix(0.05,0,0,0.05,126.80000000000001,0)" xlink:href="#C"/><use transform="matrix(0.05,0,0,0.05,131.8,0)" xlink:href="#D"/><use transform="matrix(0.05,0,0,0.05,140.8,0)" xlink:href="#K"/><use transform="matrix(0.05,0,0,0.05,146.75,0)" xlink:href="#L"/></g><g id="q"><use transform="matrix(0.05,0,0,0.05,0,0)" xlink:href="#J"/><use transform="matrix(0.05,0,0,0.05,10,0)" xlink:href="#y"/><use transform="matrix(0.05,0,0,0.05,20,0)" xlink:href="#C"/><use transform="matrix(0.05,0,0,0.05,25,0)" xlink:href="#F"/><use transform="matrix(0.05,0,0,0.05,37,0)" xlink:href="#A"/><use transform="matrix(0.05,0,0,0.05,46,0)" xlink:href="#y"/><use transform="matrix(0.05,0,0,0.05,56,0)" xlink:href="#B"/><use transform="matrix(0.05,0,0,0.05,66,0)" xlink:href="#C"/><use transform="matrix(0.05,0,0,0.05,71,0)" xlink:href="#D"/><use transform="matrix(0.05,0,0,0.05,80,0)" xlink:href="#K"/><use transform="matrix(0.05,0,0,0.05,85.95,0)" xlink:href="#L"/></g><g id="r"><use transform="matrix(0.05,0,0,0.05,0,0)" xlink:href="#D"/><use transform="matrix(0.05,0,0,0.05,9,0)" xlink:href="#y"/><use transform="matrix(0.05,0,0,0.05,19,0)" xlink:href="#C"/><use transform="matrix(0.05,0,0,0.05,24,0)" xlink:href="#F"/><use transform="matrix(0.05,0,0,0.05,36,0)" xlink:href="#A"/><use transform="matrix(0.05,0,0,0.05,45,0)" xlink:href="#y"/><use transform="matrix(0.05,0,0,0.05,55,0)" xlink:href="#B"/><use transform="matrix(0.05,0,0,0.05,65,0)" xlink:href="#C"/><use transform="matrix(0.05,0,0,0.05,70,0)" xlink:href="#D"/><use transform="matrix(0.05,0,0,0.05,79,0)" xlink:href="#K"/><use transform="matrix(0.05,0,0,0.05,84.95,0)" xlink:href="#y"/><use transform="matrix(0.05,0,0,0.05,94.95,0)" xlink:href="#A"/><use transform="matrix(0.05,0,0,0.05,103.95,0)" xlink:href="#y"/><use transform="matrix(0.05,0,0,0.05,113.95,0)" xlink:href="#B"/><use transform="matrix(0.05,0,0,0.05,123.95,0)" xlink:href="#C"/><use transform="matrix(0.05,0,0,0.05,128.95,0)" xlink:href="#D"/><use transform="matrix(0.05,0,0,0.05,137.95,0)" xlink:href="#L"/></g></defs></g></svg>